<?xml version="1.0" encoding="utf-8" standalone="no"?>
<!DOCTYPE svg PUBLIC "-//W3C//DTD SVG 1.1//EN"
  "http://www.w3.org/Graphics/SVG/1.1/DTD/svg11.dtd">
<svg xmlns:xlink="http://www.w3.org/1999/xlink" width="460.8pt" height="345.6pt" viewBox="0 0 460.8 345.6" xmlns="http://www.w3.org/2000/svg" version="1.1">
 <metadata>
  <rdf:RDF xmlns:dc="http://purl.org/dc/elements/1.1/" xmlns:cc="http://creativecommons.org/ns#" xmlns:rdf="http://www.w3.org/1999/02/22-rdf-syntax-ns#">
   <cc:Work>
    <dc:type rdf:resource="http://purl.org/dc/dcmitype/StillImage"/>
    <dc:date>2022-02-17T10:55:09.906307</dc:date>
    <dc:format>image/svg+xml</dc:format>
    <dc:creator>
     <cc:Agent>
      <dc:title>Matplotlib v3.5.0rc1, https://matplotlib.org/</dc:title>
     </cc:Agent>
    </dc:creator>
   </cc:Work>
  </rdf:RDF>
 </metadata>
 <defs>
  <style type="text/css">*{stroke-linejoin: round; stroke-linecap: butt}</style>
 </defs>
 <g id="figure_1">
  <g id="patch_1">
   <path d="M 0 345.6 
L 460.8 345.6 
L 460.8 0 
L 0 0 
z
" style="fill: #ffffff"/>
  </g>
  <g id="axes_1">
   <g id="patch_2">
    <path d="M 57.6 307.584 
L 414.72 307.584 
L 414.72 41.472 
L 57.6 41.472 
z
" style="fill: #ffffff"/>
   </g>
   <g id="matplotlib.axis_1">
    <g id="xtick_1">
     <g id="line2d_1">
      <defs>
       <path id="m9bceaa1b26" d="M 0 0 
L 0 3.5 
" style="stroke: #000000; stroke-width: 0.8"/>
      </defs>
      <g>
       <use xlink:href="#m9bceaa1b26" x="117.696256" y="307.584" style="stroke: #000000; stroke-width: 0.8"/>
      </g>
     </g>
     <g id="text_1">
      <!-- −60 -->
      <g transform="translate(107.143913 322.182437)scale(0.1 -0.1)">
       <defs>
        <path id="DejaVuSans-2212" d="M 678 2272 
L 4684 2272 
L 4684 1741 
L 678 1741 
L 678 2272 
z
" transform="scale(0.015625)"/>
        <path id="DejaVuSans-36" d="M 2113 2584 
Q 1688 2584 1439 2293 
Q 1191 2003 1191 1497 
Q 1191 994 1439 701 
Q 1688 409 2113 409 
Q 2538 409 2786 701 
Q 3034 994 3034 1497 
Q 3034 2003 2786 2293 
Q 2538 2584 2113 2584 
z
M 3366 4563 
L 3366 3988 
Q 3128 4100 2886 4159 
Q 2644 4219 2406 4219 
Q 1781 4219 1451 3797 
Q 1122 3375 1075 2522 
Q 1259 2794 1537 2939 
Q 1816 3084 2150 3084 
Q 2853 3084 3261 2657 
Q 3669 2231 3669 1497 
Q 3669 778 3244 343 
Q 2819 -91 2113 -91 
Q 1303 -91 875 529 
Q 447 1150 447 2328 
Q 447 3434 972 4092 
Q 1497 4750 2381 4750 
Q 2619 4750 2861 4703 
Q 3103 4656 3366 4563 
z
" transform="scale(0.015625)"/>
        <path id="DejaVuSans-30" d="M 2034 4250 
Q 1547 4250 1301 3770 
Q 1056 3291 1056 2328 
Q 1056 1369 1301 889 
Q 1547 409 2034 409 
Q 2525 409 2770 889 
Q 3016 1369 3016 2328 
Q 3016 3291 2770 3770 
Q 2525 4250 2034 4250 
z
M 2034 4750 
Q 2819 4750 3233 4129 
Q 3647 3509 3647 2328 
Q 3647 1150 3233 529 
Q 2819 -91 2034 -91 
Q 1250 -91 836 529 
Q 422 1150 422 2328 
Q 422 3509 836 4129 
Q 1250 4750 2034 4750 
z
" transform="scale(0.015625)"/>
       </defs>
       <use xlink:href="#DejaVuSans-2212"/>
       <use xlink:href="#DejaVuSans-36" x="83.789062"/>
       <use xlink:href="#DejaVuSans-30" x="147.412109"/>
      </g>
     </g>
    </g>
    <g id="xtick_2">
     <g id="line2d_2">
      <g>
       <use xlink:href="#m9bceaa1b26" x="180.872553" y="307.584" style="stroke: #000000; stroke-width: 0.8"/>
      </g>
     </g>
     <g id="text_2">
      <!-- −40 -->
      <g transform="translate(170.32021 322.182437)scale(0.1 -0.1)">
       <defs>
        <path id="DejaVuSans-34" d="M 2419 4116 
L 825 1625 
L 2419 1625 
L 2419 4116 
z
M 2253 4666 
L 3047 4666 
L 3047 1625 
L 3713 1625 
L 3713 1100 
L 3047 1100 
L 3047 0 
L 2419 0 
L 2419 1100 
L 313 1100 
L 313 1709 
L 2253 4666 
z
" transform="scale(0.015625)"/>
       </defs>
       <use xlink:href="#DejaVuSans-2212"/>
       <use xlink:href="#DejaVuSans-34" x="83.789062"/>
       <use xlink:href="#DejaVuSans-30" x="147.412109"/>
      </g>
     </g>
    </g>
    <g id="xtick_3">
     <g id="line2d_3">
      <g>
       <use xlink:href="#m9bceaa1b26" x="244.048851" y="307.584" style="stroke: #000000; stroke-width: 0.8"/>
      </g>
     </g>
     <g id="text_3">
      <!-- −20 -->
      <g transform="translate(233.496507 322.182437)scale(0.1 -0.1)">
       <defs>
        <path id="DejaVuSans-32" d="M 1228 531 
L 3431 531 
L 3431 0 
L 469 0 
L 469 531 
Q 828 903 1448 1529 
Q 2069 2156 2228 2338 
Q 2531 2678 2651 2914 
Q 2772 3150 2772 3378 
Q 2772 3750 2511 3984 
Q 2250 4219 1831 4219 
Q 1534 4219 1204 4116 
Q 875 4013 500 3803 
L 500 4441 
Q 881 4594 1212 4672 
Q 1544 4750 1819 4750 
Q 2544 4750 2975 4387 
Q 3406 4025 3406 3419 
Q 3406 3131 3298 2873 
Q 3191 2616 2906 2266 
Q 2828 2175 2409 1742 
Q 1991 1309 1228 531 
z
" transform="scale(0.015625)"/>
       </defs>
       <use xlink:href="#DejaVuSans-2212"/>
       <use xlink:href="#DejaVuSans-32" x="83.789062"/>
       <use xlink:href="#DejaVuSans-30" x="147.412109"/>
      </g>
     </g>
    </g>
    <g id="xtick_4">
     <g id="line2d_4">
      <g>
       <use xlink:href="#m9bceaa1b26" x="307.225148" y="307.584" style="stroke: #000000; stroke-width: 0.8"/>
      </g>
     </g>
     <g id="text_4">
      <!-- 0 -->
      <g transform="translate(304.043898 322.182437)scale(0.1 -0.1)">
       <use xlink:href="#DejaVuSans-30"/>
      </g>
     </g>
    </g>
    <g id="xtick_5">
     <g id="line2d_5">
      <g>
       <use xlink:href="#m9bceaa1b26" x="370.401445" y="307.584" style="stroke: #000000; stroke-width: 0.8"/>
      </g>
     </g>
     <g id="text_5">
      <!-- 20 -->
      <g transform="translate(364.038945 322.182437)scale(0.1 -0.1)">
       <use xlink:href="#DejaVuSans-32"/>
       <use xlink:href="#DejaVuSans-30" x="63.623047"/>
      </g>
     </g>
    </g>
   </g>
   <g id="matplotlib.axis_2">
    <g id="ytick_1">
     <g id="line2d_6">
      <defs>
       <path id="ma7ee4d7329" d="M 0 0 
L -3.5 0 
" style="stroke: #000000; stroke-width: 0.8"/>
      </defs>
      <g>
       <use xlink:href="#ma7ee4d7329" x="57.6" y="271.416222" style="stroke: #000000; stroke-width: 0.8"/>
      </g>
     </g>
     <g id="text_6">
      <!-- −11 -->
      <g transform="translate(29.495313 275.215441)scale(0.1 -0.1)">
       <defs>
        <path id="DejaVuSans-31" d="M 794 531 
L 1825 531 
L 1825 4091 
L 703 3866 
L 703 4441 
L 1819 4666 
L 2450 4666 
L 2450 531 
L 3481 531 
L 3481 0 
L 794 0 
L 794 531 
z
" transform="scale(0.015625)"/>
       </defs>
       <use xlink:href="#DejaVuSans-2212"/>
       <use xlink:href="#DejaVuSans-31" x="83.789062"/>
       <use xlink:href="#DejaVuSans-31" x="147.412109"/>
      </g>
     </g>
    </g>
    <g id="ytick_2">
     <g id="line2d_7">
      <g>
       <use xlink:href="#ma7ee4d7329" x="57.6" y="232.663805" style="stroke: #000000; stroke-width: 0.8"/>
      </g>
     </g>
     <g id="text_7">
      <!-- −10 -->
      <g transform="translate(29.495313 236.463024)scale(0.1 -0.1)">
       <use xlink:href="#DejaVuSans-2212"/>
       <use xlink:href="#DejaVuSans-31" x="83.789062"/>
       <use xlink:href="#DejaVuSans-30" x="147.412109"/>
      </g>
     </g>
    </g>
    <g id="ytick_3">
     <g id="line2d_8">
      <g>
       <use xlink:href="#ma7ee4d7329" x="57.6" y="193.911388" style="stroke: #000000; stroke-width: 0.8"/>
      </g>
     </g>
     <g id="text_8">
      <!-- −9 -->
      <g transform="translate(35.857813 197.710607)scale(0.1 -0.1)">
       <defs>
        <path id="DejaVuSans-39" d="M 703 97 
L 703 672 
Q 941 559 1184 500 
Q 1428 441 1663 441 
Q 2288 441 2617 861 
Q 2947 1281 2994 2138 
Q 2813 1869 2534 1725 
Q 2256 1581 1919 1581 
Q 1219 1581 811 2004 
Q 403 2428 403 3163 
Q 403 3881 828 4315 
Q 1253 4750 1959 4750 
Q 2769 4750 3195 4129 
Q 3622 3509 3622 2328 
Q 3622 1225 3098 567 
Q 2575 -91 1691 -91 
Q 1453 -91 1209 -44 
Q 966 3 703 97 
z
M 1959 2075 
Q 2384 2075 2632 2365 
Q 2881 2656 2881 3163 
Q 2881 3666 2632 3958 
Q 2384 4250 1959 4250 
Q 1534 4250 1286 3958 
Q 1038 3666 1038 3163 
Q 1038 2656 1286 2365 
Q 1534 2075 1959 2075 
z
" transform="scale(0.015625)"/>
       </defs>
       <use xlink:href="#DejaVuSans-2212"/>
       <use xlink:href="#DejaVuSans-39" x="83.789062"/>
      </g>
     </g>
    </g>
    <g id="ytick_4">
     <g id="line2d_9">
      <g>
       <use xlink:href="#ma7ee4d7329" x="57.6" y="155.158972" style="stroke: #000000; stroke-width: 0.8"/>
      </g>
     </g>
     <g id="text_9">
      <!-- −8 -->
      <g transform="translate(35.857813 158.95819)scale(0.1 -0.1)">
       <defs>
        <path id="DejaVuSans-38" d="M 2034 2216 
Q 1584 2216 1326 1975 
Q 1069 1734 1069 1313 
Q 1069 891 1326 650 
Q 1584 409 2034 409 
Q 2484 409 2743 651 
Q 3003 894 3003 1313 
Q 3003 1734 2745 1975 
Q 2488 2216 2034 2216 
z
M 1403 2484 
Q 997 2584 770 2862 
Q 544 3141 544 3541 
Q 544 4100 942 4425 
Q 1341 4750 2034 4750 
Q 2731 4750 3128 4425 
Q 3525 4100 3525 3541 
Q 3525 3141 3298 2862 
Q 3072 2584 2669 2484 
Q 3125 2378 3379 2068 
Q 3634 1759 3634 1313 
Q 3634 634 3220 271 
Q 2806 -91 2034 -91 
Q 1263 -91 848 271 
Q 434 634 434 1313 
Q 434 1759 690 2068 
Q 947 2378 1403 2484 
z
M 1172 3481 
Q 1172 3119 1398 2916 
Q 1625 2713 2034 2713 
Q 2441 2713 2670 2916 
Q 2900 3119 2900 3481 
Q 2900 3844 2670 4047 
Q 2441 4250 2034 4250 
Q 1625 4250 1398 4047 
Q 1172 3844 1172 3481 
z
" transform="scale(0.015625)"/>
       </defs>
       <use xlink:href="#DejaVuSans-2212"/>
       <use xlink:href="#DejaVuSans-38" x="83.789062"/>
      </g>
     </g>
    </g>
    <g id="ytick_5">
     <g id="line2d_10">
      <g>
       <use xlink:href="#ma7ee4d7329" x="57.6" y="116.406555" style="stroke: #000000; stroke-width: 0.8"/>
      </g>
     </g>
     <g id="text_10">
      <!-- −7 -->
      <g transform="translate(35.857813 120.205773)scale(0.1 -0.1)">
       <defs>
        <path id="DejaVuSans-37" d="M 525 4666 
L 3525 4666 
L 3525 4397 
L 1831 0 
L 1172 0 
L 2766 4134 
L 525 4134 
L 525 4666 
z
" transform="scale(0.015625)"/>
       </defs>
       <use xlink:href="#DejaVuSans-2212"/>
       <use xlink:href="#DejaVuSans-37" x="83.789062"/>
      </g>
     </g>
    </g>
    <g id="ytick_6">
     <g id="line2d_11">
      <g>
       <use xlink:href="#ma7ee4d7329" x="57.6" y="77.654138" style="stroke: #000000; stroke-width: 0.8"/>
      </g>
     </g>
     <g id="text_11">
      <!-- −6 -->
      <g transform="translate(35.857813 81.453356)scale(0.1 -0.1)">
       <use xlink:href="#DejaVuSans-2212"/>
       <use xlink:href="#DejaVuSans-36" x="83.789062"/>
      </g>
     </g>
    </g>
   </g>
   <g id="line2d_12">
    <path d="M 73.832727 82.201966 
L 74.058776 87.53072 
L 74.67493 95.983922 
L 76.079783 111.512652 
L 78.583715 136.615251 
L 81.234493 161.01143 
L 83.750362 182.163215 
L 86.145674 200.49475 
L 88.43466 216.371446 
L 90.631612 230.108235 
L 92.751312 241.976553 
L 94.760633 251.981288 
L 96.676354 260.404213 
L 98.465118 267.301166 
L 100.191629 273.090722 
L 101.818782 277.789697 
L 103.355827 281.579287 
L 104.868307 284.723714 
L 106.305816 287.209725 
L 107.736005 289.237403 
L 109.089344 290.788403 
L 110.52167 292.089075 
L 111.962981 293.09683 
L 113.525205 293.90946 
L 115.250856 294.541322 
L 117.196471 295.00455 
L 119.437904 295.309296 
L 122.385288 295.47196 
L 126.561344 295.446867 
L 133.170648 295.147899 
L 180.14823 292.579078 
L 203.128858 291.667472 
L 228.141863 290.849221 
L 269.506498 289.756129 
L 301.875736 289.05199 
L 348.658533 288.190416 
L 101.902182 54.58649 
L 96.738875 56.374754 
L 92.080676 58.225853 
L 88.038637 60.131366 
L 85.708769 61.427193 
L 83.668423 62.739969 
L 81.90486 64.066815 
L 80.398793 65.405005 
L 79.126938 66.752024 
L 78.064175 68.105602 
L 76.806996 70.14393 
L 75.883264 72.186806 
L 75.222452 74.229661 
L 74.765628 76.268934 
L 74.393064 78.977771 
L 74.191866 82.341134 
L 74.193958 86.33641 
L 74.424277 91.585297 
L 75.03931 99.911304 
L 76.43736 115.205046 
L 78.929845 139.923523 
L 81.569466 163.940047 
L 84.075668 184.756108 
L 86.462836 202.790199 
L 88.745291 218.402809 
L 90.937479 231.904568 
L 93.00537 243.308241 
L 94.965324 252.932962 
L 96.833168 261.045956 
L 98.624596 267.871333 
L 100.303974 273.438485 
L 101.935657 278.099642 
L 103.478885 281.856328 
L 104.939311 284.85769 
L 106.382631 287.329541 
L 107.748692 289.253535 
L 109.10342 290.802809 
L 110.537614 292.101775 
L 111.981292 293.107921 
L 113.546721 293.918909 
L 115.276784 294.549052 
L 117.22859 295.010434 
L 119.478884 295.313137 
L 122.44091 295.473205 
L 126.643768 295.444537 
L 133.310305 295.140031 
L 175.620922 292.782463 
L 195.53726 291.948668 
L 216.480644 291.212162 
L 249.647097 290.248245 
L 274.487159 289.640575 
L 308.901416 288.912225 
L 359.163234 288.016454 
L 101.902182 54.361328 
L 96.733529 56.150967 
L 92.070658 58.003508 
L 88.024851 59.91052 
L 85.69301 61.207369 
L 83.651103 62.521182 
L 81.886355 63.849076 
L 80.379428 65.188319 
L 79.106987 66.536396 
L 78.043858 67.891032 
L 76.786439 69.930945 
L 75.86272 71.975398 
L 75.202072 74.01982 
L 74.74549 76.060648 
L 74.373293 78.771538 
L 74.172541 82.137434 
L 74.175088 86.135703 
L 74.405862 91.388505 
L 75.021363 99.720714 
L 76.419902 115.025878 
L 78.912962 139.763014 
L 81.553125 163.797978 
L 84.059795 184.630345 
L 86.447357 202.678883 
L 88.730126 218.304321 
L 90.922541 231.817497 
L 92.990558 243.231134 
L 94.999535 253.090808 
L 96.867641 261.186073 
L 98.659677 267.995779 
L 100.340046 273.549403 
L 101.973211 278.198461 
L 103.518461 281.944614 
L 104.981526 284.936781 
L 106.428344 287.400238 
L 107.79874 289.316867 
L 109.158978 290.85934 
L 110.510486 292.080143 
L 111.950139 293.089027 
L 113.510121 293.90281 
L 115.232687 294.535877 
L 117.173978 295.0004 
L 119.409226 295.306577 
L 122.346404 295.471057 
L 126.503808 295.448462 
L 133.073384 295.153356 
L 179.42527 292.61096 
L 201.898984 291.711844 
L 226.225276 290.90689 
L 266.171766 289.835152 
L 297.206918 289.147219 
L 341.746937 288.308365 
L 101.902182 54.738121 
L 96.742475 56.525458 
L 92.087423 58.375586 
L 88.047921 60.28009 
L 85.719383 61.575228 
L 83.680089 62.887306 
L 81.917325 64.213447 
L 80.411837 65.550927 
L 79.140378 66.897234 
L 78.077861 68.250099 
L 76.820844 70.28736 
L 75.897103 72.329174 
L 75.236182 74.370973 
L 74.779195 76.409199 
L 74.406385 79.116654 
L 74.204887 82.478311 
L 74.206672 86.471572 
L 74.436684 91.71782 
L 75.051402 100.039651 
L 76.449122 115.3257 
L 78.94122 140.031611 
L 81.580476 164.035716 
L 84.086362 184.840795 
L 86.473265 202.865156 
L 88.755509 218.469128 
L 90.947544 231.963197 
L 93.01535 243.36016 
L 94.975295 252.979003 
L 96.843214 261.086827 
L 98.634819 267.907634 
L 100.314485 273.470842 
L 101.946598 278.128471 
L 103.490413 281.882086 
L 104.951606 284.880768 
L 106.395941 287.350173 
L 107.763261 289.272021 
L 109.119586 290.819313 
L 110.555932 292.116321 
L 112.002338 293.120621 
L 113.571463 293.929721 
L 115.306619 294.557889 
L 117.265576 295.017146 
L 119.526116 295.317497 
L 122.505098 295.474574 
L 126.739059 295.441777 
L 133.472243 295.130863 
L 176.688476 292.733691 
L 197.303934 291.881635 
L 219.158505 291.126176 
L 254.117173 290.132755 
L 280.564799 289.503381 
L 317.559622 288.745481 
L 372.280869 287.807556 
L 101.902182 54.088477 
L 96.727051 55.879782 
L 92.058519 57.734071 
L 88.008148 59.642898 
L 85.673915 60.940987 
L 83.630118 62.256057 
L 81.863935 63.585219 
L 80.355969 64.925739 
L 79.082819 66.275097 
L 78.019248 67.631015 
L 76.761541 69.672849 
L 75.837839 71.719214 
L 75.177389 73.765534 
L 74.721101 75.808246 
L 74.349348 78.521624 
L 74.149137 81.890588 
L 74.152235 85.892483 
L 74.38356 91.150031 
L 74.999628 99.489753 
L 76.398758 114.808759 
L 78.892514 139.568502 
L 81.533334 163.62581 
L 84.040572 184.477935 
L 86.428611 202.543979 
L 88.711762 218.184961 
L 90.904452 231.71197 
L 92.972623 243.137679 
L 94.981617 253.008182 
L 96.849585 261.112729 
L 98.641302 267.93064 
L 100.321151 273.491347 
L 101.953538 278.14674 
L 103.497726 281.898408 
L 104.959406 284.895391 
L 106.404387 287.363244 
L 107.772506 289.283731 
L 109.129849 290.829767 
L 110.567564 292.125532 
L 112.015707 293.12866 
L 113.587185 293.936561 
L 115.325588 294.563475 
L 117.289106 295.021382 
L 119.55619 295.320237 
L 122.546012 295.475408 
L 126.799898 295.43998 
L 133.575901 295.12497 
L 177.382516 292.702256 
L 198.460197 291.838299 
L 220.922846 291.070413 
L 257.091556 290.057502 
L 284.636906 289.413682 
L 323.413101 288.635979 
L 381.256785 287.669549 
L 101.902182 53.906699 
L 96.722736 55.699113 
L 92.050432 57.554567 
L 87.99702 59.464604 
L 85.661196 60.763518 
L 83.616141 62.079425 
L 81.849002 63.409433 
L 80.340344 64.750804 
L 79.066723 66.101015 
L 78.002858 67.457788 
L 76.74496 69.500901 
L 75.82127 71.548539 
L 75.160953 73.596124 
L 74.704862 75.640091 
L 74.333405 78.355125 
L 74.133553 81.726134 
L 74.137019 85.730445 
L 74.36871 90.991153 
L 74.985154 99.335881 
L 76.384679 114.664107 
L 78.878898 139.438911 
L 81.520156 163.511103 
L 84.027773 184.376391 
L 86.41613 202.454097 
L 88.699535 218.105432 
L 90.892409 231.641657 
L 92.960682 243.075408 
L 94.969689 252.953124 
L 96.837567 261.063855 
L 98.629072 267.887231 
L 100.308576 273.452655 
L 101.940447 278.112268 
L 103.483932 281.867609 
L 104.944693 284.867797 
L 106.388457 287.338577 
L 107.755069 289.261632 
L 109.110496 290.810038 
L 110.545631 292.108147 
L 111.990502 293.113485 
L 113.557546 293.923646 
L 115.289835 294.552925 
L 117.244766 295.013377 
L 119.499536 295.315052 
L 122.468964 295.473812 
L 126.685393 295.44334 
L 133.38098 295.136036 
L 176.084359 292.761227 
L 196.302433 291.919512 
L 217.637816 291.174802 
L 251.572193 290.198147 
L 277.098367 289.581131 
L 312.609876 288.840087 
L 364.758495 287.926262 
L 101.902182 54.243859 
L 96.73074 56.034215 
L 92.065432 57.887509 
L 88.01766 59.795302 
L 85.684789 61.092685 
L 83.642068 62.407039 
L 81.876702 63.735478 
L 80.369327 65.075272 
L 79.096581 66.4239 
L 78.033261 67.779088 
L 76.775718 69.819828 
L 75.852006 71.865105 
L 75.191444 73.910344 
L 74.734988 75.951982 
L 74.362982 78.663944 
L 74.162463 82.031161 
L 74.165248 86.030991 
L 74.396258 91.285836 
L 75.012004 99.62128 
L 76.410797 114.932403 
L 78.904157 139.679272 
L 81.544603 163.723856 
L 84.051518 184.56473 
L 86.439285 202.620805 
L 88.722218 218.252935 
L 90.914752 231.772067 
L 92.982834 243.190901 
L 94.991819 253.055238 
L 96.859865 261.154499 
L 98.651764 267.967738 
L 100.331908 273.524411 
L 101.964738 278.176197 
L 103.50953 281.924725 
L 104.971998 284.918966 
L 106.418023 287.384316 
L 107.787437 289.302607 
L 109.146425 290.846614 
L 110.496367 292.068843 
L 111.933934 293.079153 
L 113.491094 293.89439 
L 115.209779 294.528978 
L 117.145631 294.995134 
L 119.37311 295.303114 
L 122.297478 295.469882 
L 126.431509 295.45043 
L 132.951429 295.160172 
L 178.531468 292.650684 
L 200.387784 291.766976 
L 223.884876 290.978331 
L 262.137663 289.932605 
L 291.596598 289.264272 
L 333.514614 288.452716 
L 396.950913 287.437082 
L 101.902182 53.597682 
L 96.7154 55.391984 
L 92.036685 57.249417 
L 87.978106 59.16151 
L 85.639577 60.461828 
L 83.592384 61.779158 
L 81.823624 63.110603 
L 80.313791 64.45342 
L 79.03937 65.805082 
L 77.975008 67.163307 
L 76.716786 69.208594 
L 75.793118 71.258397 
L 75.133029 73.308132 
L 74.677271 75.354232 
L 74.306318 78.072083 
L 74.107078 81.446567 
L 74.111168 85.454983 
L 74.34348 90.721065 
L 74.960565 99.074301 
L 76.360758 114.418199 
L 78.855765 139.218603 
L 81.497767 163.316096 
L 84.006027 184.203758 
L 86.394925 202.301286 
L 88.678763 217.970221 
L 90.871951 231.52211 
L 92.940399 242.969531 
L 94.949429 252.859508 
L 96.817153 260.980748 
L 98.608302 267.813412 
L 100.287223 273.386855 
L 101.918223 278.053638 
L 103.460517 281.81522 
L 104.919726 284.820855 
L 106.361434 287.296607 
L 107.7255 289.224022 
L 109.077692 290.776453 
L 110.508476 292.078537 
L 111.947832 293.087623 
L 113.507412 293.901613 
L 115.229425 294.534897 
L 117.16994 294.999652 
L 119.40408 295.306086 
L 122.339429 295.470892 
L 126.493494 295.448746 
L 133.05597 295.154331 
L 179.296782 292.616649 
L 201.68111 291.719751 
L 225.886864 290.917149 
L 265.585871 289.849178 
L 296.389541 289.164092 
L 340.542594 288.329215 
L 101.902182 54.764839 
L 96.743109 56.552013 
L 92.088611 58.40197 
L 88.049557 60.306296 
L 85.721253 61.601313 
L 83.682145 62.913268 
L 81.919522 64.239284 
L 80.414136 65.576639 
L 79.142746 66.922821 
L 78.080273 68.27556 
L 76.823284 70.312634 
L 75.899542 72.35426 
L 75.238602 74.395873 
L 74.781587 76.433914 
L 74.408733 79.141126 
L 74.207181 82.502482 
L 74.208912 86.495388 
L 74.438871 91.741172 
L 75.053533 100.062266 
L 76.451195 115.34696 
L 78.943225 140.050657 
L 81.582417 164.052574 
L 84.088247 184.855717 
L 86.475103 202.878364 
L 88.75731 218.480813 
L 90.949318 231.973528 
L 93.017109 243.369307 
L 94.977052 252.987115 
L 96.844985 261.094028 
L 98.636621 267.91403 
L 100.316338 273.476542 
L 101.948527 278.13355 
L 103.492446 281.886624 
L 104.953774 284.884833 
L 106.398288 287.353807 
L 107.76583 289.275277 
L 109.122438 290.82222 
L 110.559164 292.118883 
L 112.006053 293.122856 
L 113.57583 293.931623 
L 115.311888 294.559443 
L 117.27211 295.018325 
L 119.534466 295.318261 
L 122.516454 295.474808 
L 126.755938 295.441282 
L 133.50098 295.129231 
L 176.880038 292.724993 
L 197.622466 291.869655 
L 219.643626 291.110774 
L 254.932684 290.111998 
L 281.679052 289.478664 
L 319.157137 288.715346 
L 374.72194 287.769641 
L 101.902182 54.038659 
L 96.725869 55.830268 
L 92.056303 57.684876 
L 88.005098 59.594035 
L 85.670429 60.89235 
L 83.626288 62.207649 
L 81.859842 63.537043 
L 80.351687 64.877797 
L 79.078407 66.227388 
L 78.014756 67.583541 
L 76.756996 69.625725 
L 75.833297 71.672439 
L 75.172884 73.719106 
L 74.71665 75.762162 
L 74.344978 78.475993 
L 74.144865 81.845518 
L 74.148065 85.848075 
L 74.379489 91.106489 
L 74.99566 99.447584 
L 76.394899 114.769116 
L 78.888782 139.532987 
L 81.529722 163.594374 
L 84.037064 184.450107 
L 86.42519 202.519347 
L 88.70841 218.163166 
L 90.901151 231.692701 
L 92.96935 243.120614 
L 94.978348 252.993094 
L 96.846291 261.099336 
L 98.63795 267.918744 
L 100.317704 273.480744 
L 101.949949 278.137294 
L 103.493944 281.889969 
L 104.955372 284.88783 
L 106.400019 287.356486 
L 107.767724 289.277677 
L 109.124541 290.824362 
L 110.561547 292.12077 
L 112.008791 293.124504 
L 113.579051 293.933025 
L 115.315773 294.560588 
L 117.27693 295.019193 
L 119.540626 295.318823 
L 122.524833 295.47498 
L 126.768396 295.440914 
L 133.522201 295.128025 
L 177.021916 292.718562 
L 197.858681 291.860791 
L 220.003833 291.099372 
L 255.539346 290.096618 
L 282.509042 289.460337 
L 320.349147 288.692983 
L 376.547592 287.741474 
L 101.902182 54.001589 
L 96.724989 55.793425 
L 92.054654 57.64827 
L 88.002829 59.557676 
L 85.667835 60.856159 
L 83.623437 62.171629 
L 81.856797 63.501195 
L 80.3485 64.842123 
L 79.075125 66.191888 
L 78.011413 67.548215 
L 76.753615 69.59066 
L 75.829918 71.637634 
L 75.169532 73.684559 
L 74.713338 75.72787 
L 74.341727 78.44204 
L 74.141687 81.811982 
L 74.144961 85.815031 
L 74.376461 91.07409 
L 74.992709 99.416205 
L 76.392027 114.739617 
L 78.886005 139.506559 
L 81.527034 163.570982 
L 84.034454 184.429399 
L 86.422645 202.501017 
L 88.705917 218.146948 
L 90.898695 231.678362 
L 92.966914 243.107915 
L 94.975915 252.981866 
L 96.84384 261.089369 
L 98.635455 267.909892 
L 100.315139 273.472854 
L 101.947279 278.130264 
L 103.491131 281.883688 
L 104.952371 284.882203 
L 106.39677 287.351456 
L 107.764167 289.27317 
L 109.120593 290.820339 
L 110.557073 292.117225 
L 112.003649 293.12141 
L 113.573004 293.930392 
L 115.308478 294.558437 
L 117.267882 295.017562 
L 119.529063 295.317767 
L 122.509105 295.474657 
L 126.745015 295.441603 
L 133.48238 295.130288 
L 176.75598 292.730624 
L 197.416127 291.877411 
L 219.329294 291.120747 
L 254.404077 290.125442 
L 280.956611 289.494674 
L 318.121007 288.73487 
L 373.137953 287.794211 
L 101.902182 54.070952 
L 96.726635 55.862364 
L 92.057739 57.716766 
L 88.007075 59.625709 
L 85.672689 60.923878 
L 83.628771 62.239028 
L 81.862495 63.568272 
L 80.354462 64.908874 
L 79.081267 66.258314 
L 78.017668 67.614315 
L 76.759942 69.656272 
L 75.836241 71.70276 
L 75.175804 73.749202 
L 74.719535 75.792035 
L 74.347811 78.505572 
L 74.147634 81.874734 
L 74.150768 85.876861 
L 74.382128 91.134714 
L 74.998232 99.474919 
L 76.3974 114.794813 
L 78.891201 139.556009 
L 81.532063 163.614751 
L 84.039338 184.468146 
L 86.427408 202.535314 
L 88.710583 218.177294 
L 90.903291 231.705192 
L 92.971471 243.131676 
L 94.980467 253.002875 
L 96.848426 261.108018 
L 98.640123 267.926456 
L 100.319938 273.487617 
L 101.952275 278.143417 
L 103.496396 281.89544 
L 104.957987 284.892731 
L 106.40285 287.360867 
L 107.770824 289.281602 
L 109.127981 290.827866 
L 110.565447 292.123857 
L 112.013274 293.127198 
L 113.584323 293.935318 
L 115.322134 294.562459 
L 117.284821 295.020612 
L 119.550711 295.31974 
L 122.538557 295.475258 
L 126.788806 295.44031 
L 133.556986 295.126046 
L 177.255243 292.708005 
L 198.247706 291.846232 
L 220.597908 291.080631 
L 256.542014 290.071312 
L 283.882862 289.430161 
L 322.326026 288.656126 
L 379.583265 287.69499 
L 101.902182 53.940301 
L 96.723534 55.732511 
L 92.051927 57.587749 
L 87.999077 59.497562 
L 85.663547 60.796324 
L 83.618725 62.112076 
L 81.851763 63.441927 
L 80.343232 64.783141 
L 79.069698 66.133195 
L 78.005887 67.48981 
L 76.748024 69.532686 
L 75.824332 71.580089 
L 75.163991 73.627441 
L 74.707863 75.671175 
L 74.336352 78.385903 
L 74.136434 81.756534 
L 74.139831 85.760398 
L 74.371454 91.020523 
L 74.987829 99.364325 
L 76.387281 114.690847 
L 78.881415 139.462866 
L 81.522592 163.532307 
L 84.030138 184.395162 
L 86.418437 202.470712 
L 88.701795 218.120134 
L 90.894635 231.654655 
L 92.962889 243.08692 
L 94.971894 252.963303 
L 96.839788 261.07289 
L 98.631332 267.895256 
L 100.3109 273.459808 
L 101.942866 278.118641 
L 103.486481 281.873303 
L 104.947411 284.872899 
L 106.3914 287.343138 
L 107.75829 289.265719 
L 109.11407 290.813687 
L 110.549681 292.111363 
L 111.995155 293.116292 
L 113.563017 293.926036 
L 115.296432 294.554878 
L 117.252944 295.014861 
L 119.50998 295.316015 
L 122.483159 295.474114 
L 126.706468 295.442729 
L 133.4168 295.134007 
L 176.320707 292.750435 
L 196.693702 291.904676 
L 218.231096 291.155768 
L 252.563041 290.172576 
L 278.446017 289.550749 
L 314.53058 288.803152 
L 367.670114 287.879975 
L 101.902182 54.183377 
L 96.729304 55.974102 
L 92.062741 57.827784 
L 88.013957 59.735979 
L 85.680556 61.033637 
L 83.637416 62.34827 
L 81.871732 63.676991 
L 80.364127 65.017067 
L 79.091224 66.365979 
L 78.027806 67.721451 
L 76.770199 69.762617 
L 75.846491 71.808317 
L 75.185972 73.853977 
L 74.729582 75.896034 
L 74.357675 78.608546 
L 74.157275 81.976444 
L 74.160182 85.977077 
L 74.391315 91.232975 
L 75.007186 99.570084 
L 76.40611 114.884275 
L 78.899624 139.636156 
L 81.540216 163.685692 
L 84.047257 184.530946 
L 86.43513 202.590902 
L 88.718148 218.226477 
L 90.910742 231.748675 
L 92.978859 243.170186 
L 94.987847 253.036923 
L 96.855863 261.138241 
L 98.647691 267.953299 
L 100.32772 273.511542 
L 101.960377 278.164732 
L 103.504934 281.914482 
L 104.967095 284.909791 
L 106.412713 287.376115 
L 107.781622 289.295261 
L 109.139969 290.840058 
L 110.579037 292.134599 
L 112.028897 293.136571 
L 113.602703 293.943291 
L 115.344317 294.568966 
L 117.312351 295.02554 
L 119.585916 295.322918 
L 122.58649 295.476206 
L 126.860164 295.438172 
L 133.678788 295.119102 
L 172.935846 292.907438 
L 191.156602 292.119339 
L 222.714317 291.014495 
L 260.135588 289.98175 
L 288.827575 289.323144 
L 329.48087 288.525058 
L 390.65292 287.529074 
L 101.902182 53.720396 
L 96.718313 55.513949 
L 92.042144 57.370596 
L 87.985617 59.281872 
L 85.648162 60.581632 
L 83.601818 61.898397 
L 81.833701 63.229271 
L 80.324335 64.571514 
L 79.050231 65.9226 
L 77.986066 67.280248 
L 76.727972 69.324673 
L 75.804295 71.373616 
L 75.144116 73.422497 
L 74.688225 75.46775 
L 74.317072 78.184482 
L 74.117589 81.557586 
L 74.121431 85.564372 
L 74.353497 90.82832 
L 74.970328 99.178178 
L 76.370255 114.515853 
L 78.86495 139.306091 
L 81.506656 163.393537 
L 84.01466 184.272314 
L 86.403344 202.361971 
L 88.687009 218.023917 
L 90.880073 231.569586 
L 92.948452 243.011579 
L 94.957472 252.896687 
L 96.825257 261.013754 
L 98.616547 267.84273 
L 100.295699 273.412989 
L 101.927044 278.076925 
L 103.46981 281.836029 
L 104.929634 284.839501 
L 106.372157 287.31328 
L 107.737231 289.238964 
L 109.090704 290.789797 
L 110.523211 292.090304 
L 111.96475 293.097903 
L 113.527283 293.910374 
L 115.25336 294.54207 
L 117.199572 295.00512 
L 119.441859 295.309669 
L 122.390653 295.472083 
L 126.569289 295.446645 
L 133.184092 295.147143 
L 180.248875 292.574657 
L 203.300609 291.661311 
L 228.410364 290.841201 
L 269.975922 289.745114 
L 302.535218 289.038693 
L 349.639264 288.173909 
L 101.902182 54.565204 
L 96.738369 56.353598 
L 92.079729 58.204833 
L 88.037334 60.110488 
L 85.707279 61.406411 
L 83.666786 62.719286 
L 81.903111 64.046231 
L 80.396962 65.38452 
L 79.125052 66.731639 
L 78.062254 68.085317 
L 76.805052 70.123795 
L 75.881321 72.16682 
L 75.220525 74.209823 
L 74.763724 76.249243 
L 74.391195 78.958274 
L 74.190039 82.321877 
L 74.192174 86.317436 
L 74.422536 91.566693 
L 75.037613 99.893286 
L 76.435709 115.188108 
L 78.928249 139.908349 
L 81.567921 163.926616 
L 84.074167 184.744219 
L 86.461372 202.779675 
L 88.743857 218.393499 
L 90.936066 231.896337 
L 93.003969 243.300952 
L 94.963924 252.926498 
L 96.831758 261.040218 
L 98.623162 267.866236 
L 100.302499 273.433942 
L 101.934122 278.095594 
L 103.477267 281.852711 
L 104.937586 284.854449 
L 106.380763 287.326644 
L 107.746649 289.250939 
L 109.101152 290.800491 
L 110.535046 292.099731 
L 111.978342 293.106137 
L 113.543253 293.917389 
L 115.272605 294.547809 
L 117.223412 295.009488 
L 119.472275 295.312521 
L 122.431935 295.473008 
L 126.630458 295.444917 
L 133.287727 295.141306 
L 175.47367 292.78923 
L 195.294697 291.95795 
L 216.114661 291.224043 
L 249.040304 290.264151 
L 273.666049 289.659427 
L 307.738838 288.935069 
L 357.41633 288.044957 
L 101.902182 54.398346 
L 96.734408 56.187759 
L 92.072305 58.040063 
L 88.027118 59.946828 
L 85.6956 61.24351 
L 83.65395 62.557152 
L 81.889397 63.884873 
L 80.382611 65.223944 
L 79.110267 66.571846 
L 78.047198 67.926308 
L 76.789818 69.965961 
L 75.866097 72.010155 
L 75.205422 74.05432 
L 74.7488 76.094891 
L 74.376543 78.805444 
L 74.175717 82.170924 
L 74.17819 86.1687 
L 74.408889 91.420859 
L 75.024313 99.752048 
L 76.422771 115.055335 
L 78.915737 139.789403 
L 81.555811 163.821335 
L 84.062404 184.651022 
L 86.449901 202.697185 
L 88.732619 218.320514 
L 90.924996 231.831813 
L 92.992992 243.243812 
L 95.001967 253.102017 
L 96.870092 261.196022 
L 98.662172 268.004615 
L 100.342611 273.557277 
L 101.975882 278.205476 
L 103.521277 281.95088 
L 104.984531 284.942394 
L 106.431598 287.405254 
L 107.802304 289.32136 
L 109.162937 290.863348 
L 110.51494 292.083702 
L 111.955253 293.092136 
L 113.516127 293.90546 
L 115.23992 294.538047 
L 117.182931 295.002055 
L 119.42064 295.307662 
L 122.361875 295.47142 
L 126.526693 295.447831 
L 133.112049 295.151189 
L 179.711575 292.598307 
L 202.385229 291.694249 
L 226.981744 290.884039 
L 267.484608 289.80388 
L 299.04161 289.109566 
L 344.45638 288.261785 
L 101.902182 54.678337 
L 96.741055 56.46604 
L 92.084763 58.316551 
L 88.044261 60.221453 
L 85.715198 61.516862 
L 83.675489 62.829216 
L 81.91241 64.155635 
L 80.406694 65.493394 
L 79.135079 66.839982 
L 78.072465 68.193128 
L 76.815384 70.23081 
L 75.891646 72.273043 
L 75.230768 74.315258 
L 74.773846 76.353896 
L 74.401132 79.061897 
L 74.199752 82.424226 
L 74.201658 86.418282 
L 74.431792 91.66557 
L 75.046634 99.989048 
L 76.444484 115.27813 
L 78.936735 139.988996 
L 81.576135 163.997997 
L 84.082145 184.807406 
L 86.469153 202.835603 
L 88.75148 218.442981 
L 90.943575 231.940082 
L 93.011414 243.33969 
L 94.971363 252.960851 
L 96.839253 261.070714 
L 98.630788 267.893323 
L 100.31034 273.458085 
L 101.942283 278.117106 
L 103.485867 281.871932 
L 104.946757 284.87167 
L 106.390691 287.34204 
L 107.757514 289.264734 
L 109.113209 290.812808 
L 110.548705 292.110588 
L 111.994034 293.115616 
L 113.561698 293.925461 
L 115.294843 294.554408 
L 117.250973 295.014504 
L 119.507463 295.315784 
L 122.479738 295.474042 
L 126.701388 295.442877 
L 133.408163 295.134497 
L 176.263627 292.753039 
L 196.599143 291.908257 
L 218.087618 291.160364 
L 252.323177 290.178753 
L 278.11955 289.558091 
L 314.064868 288.812081 
L 366.963278 287.891172 
L 101.902182 54.19802 
L 96.729652 55.988656 
L 92.063393 57.842243 
L 88.014853 59.750341 
L 85.681581 61.047933 
L 83.638543 62.362498 
L 81.872935 63.691151 
L 80.365386 65.031159 
L 79.092521 66.380002 
L 78.029127 67.735405 
L 76.771535 69.776468 
L 75.847826 71.822066 
L 75.187297 73.867624 
L 74.730891 75.909579 
L 74.35896 78.621958 
L 74.158531 81.989691 
L 74.161408 85.99013 
L 74.392512 91.245773 
L 75.008352 99.582479 
L 76.407245 114.895927 
L 78.900721 139.646594 
L 81.541278 163.694932 
L 84.048288 184.539125 
L 86.436136 202.598141 
L 88.719133 218.232883 
L 90.911713 231.754339 
L 92.979821 243.175201 
L 94.988809 253.041357 
L 96.856832 261.142178 
L 98.648677 267.956795 
L 100.328734 273.514658 
L 101.961433 278.167508 
L 103.506047 281.916962 
L 104.968281 284.912012 
L 106.413998 287.378101 
L 107.78303 289.29704 
L 109.141532 290.841645 
L 110.580809 292.135997 
L 112.030934 293.137791 
L 113.6051 293.944328 
L 115.347211 294.569812 
L 117.315944 295.02618 
L 119.590512 295.32333 
L 122.592751 295.476326 
L 126.869493 295.43789 
L 133.694733 295.118191 
L 173.029689 292.903013 
L 191.308203 292.113323 
L 222.995621 291.005777 
L 260.615773 289.969915 
L 289.490781 289.308976 
L 330.445219 288.507664 
L 392.154835 287.506982 
L 101.902182 53.690978 
L 96.717614 55.48471 
L 92.040835 57.341546 
L 87.983816 59.253018 
L 85.646104 60.552912 
L 83.599556 61.869812 
L 81.831285 63.200823 
L 80.321807 64.543204 
L 79.047627 65.894428 
L 77.983414 67.252214 
L 76.72529 69.296845 
L 75.801616 71.345995 
L 75.141457 73.395081 
L 74.685599 75.440537 
L 74.314494 78.157537 
L 74.115069 81.530972 
L 74.11897 85.538148 
L 74.351095 90.802608 
L 74.967987 99.153276 
L 76.367978 114.492443 
L 78.862748 139.285118 
L 81.504525 163.374973 
L 84.012591 184.255879 
L 86.401326 202.347423 
L 88.685032 218.011045 
L 90.878126 231.558205 
L 92.946521 243.001499 
L 94.955544 252.887774 
L 96.823314 261.005842 
L 98.61457 267.835702 
L 100.293667 273.406724 
L 101.924929 278.071343 
L 103.467582 281.831041 
L 104.927258 284.835032 
L 106.369585 287.309283 
L 107.734418 289.235382 
L 109.087583 290.786599 
L 110.519676 292.087484 
L 111.960691 293.09544 
L 113.522515 293.908275 
L 115.247615 294.540352 
L 117.192458 295.003812 
L 119.432787 295.308813 
L 122.378348 295.471801 
L 126.55107 295.447154 
L 133.153266 295.148875 
L 180.018358 292.584789 
L 202.907428 291.675429 
L 227.796006 290.859573 
L 268.902647 289.770338 
L 301.028221 289.069134 
L 347.399791 288.211684 
L 101.902182 54.613893 
L 96.739525 56.401989 
L 92.081895 58.252913 
L 88.040315 60.158244 
L 85.710687 61.453946 
L 83.670531 62.766596 
L 81.907113 64.093315 
L 80.40115 65.431376 
L 79.129367 66.778267 
L 78.066648 68.131716 
L 76.809498 70.169851 
L 75.885764 72.212535 
L 75.224933 74.255199 
L 74.76808 76.294283 
L 74.395471 79.00287 
L 74.194219 82.365925 
L 74.196255 86.360837 
L 74.426519 91.609247 
L 75.041495 99.934499 
L 76.439485 115.226851 
L 78.9319 139.943057 
L 81.571456 163.957337 
L 84.0776 184.771413 
L 86.464721 202.803745 
L 88.747137 218.414795 
L 90.939298 231.915164 
L 93.007173 243.317624 
L 94.967125 252.941283 
L 96.834983 261.053343 
L 98.626443 267.877894 
L 100.305873 273.444333 
L 101.937634 278.104853 
L 103.480967 281.860984 
L 104.941532 284.861861 
L 106.385035 287.333271 
L 107.751323 289.256877 
L 109.106339 290.805793 
L 110.540922 292.104405 
L 111.985091 293.110218 
L 113.551186 293.920864 
L 115.282168 294.550651 
L 117.235262 295.011649 
L 119.487401 295.313928 
L 122.452478 295.473457 
L 126.660927 295.444045 
L 133.339427 295.138386 
L 175.811422 292.773722 
L 195.851465 291.936672 
L 216.955327 291.196799 
L 250.43559 290.227659 
L 275.555538 289.616161 
L 310.416648 288.882617 
L 361.445182 287.97947 
L 101.902182 54.31322 
L 96.732387 56.103152 
L 92.068518 57.956002 
L 88.021906 59.863333 
L 85.689643 61.160401 
L 83.647403 62.474436 
L 81.882401 63.802553 
L 80.375291 65.142022 
L 79.102725 66.490324 
L 78.039518 67.845186 
L 76.782048 69.885438 
L 75.858332 71.930229 
L 75.197719 73.974985 
L 74.741189 76.016145 
L 74.36907 78.727474 
L 74.168413 82.093911 
L 74.171058 86.092819 
L 74.401929 91.346458 
L 75.01753 99.679992 
L 76.416173 114.987597 
L 78.909355 139.728718 
L 81.549635 163.767622 
L 84.056405 184.603473 
L 86.444051 202.655098 
L 88.726887 218.283277 
L 90.919351 231.798892 
L 92.987394 243.214657 
L 94.996374 253.076241 
L 96.864456 261.173143 
L 98.656436 267.984296 
L 100.336713 273.539168 
L 101.96974 278.189343 
L 103.514803 281.936469 
L 104.977623 284.929486 
L 106.424116 287.393718 
L 107.794109 289.311028 
L 109.153835 290.854129 
L 110.504701 292.075517 
L 111.943499 293.084985 
L 113.502323 293.899363 
L 115.223297 294.533054 
L 117.162357 294.998246 
L 119.394417 295.305162 
L 122.326335 295.470581 
L 126.474139 295.449275 
L 133.023303 295.156159 
L 179.056538 292.627306 
L 201.274306 291.734551 
L 225.255889 290.936342 
L 264.495795 289.875388 
L 294.871099 289.195598 
L 338.309777 288.36811 
L 101.902182 54.814613 
L 96.744291 56.601483 
L 92.090826 58.451121 
L 88.052605 60.355116 
L 85.724738 61.649907 
L 83.685974 62.961632 
L 81.923614 64.287417 
L 80.418418 65.624539 
L 79.147158 66.970487 
L 78.084767 68.322993 
L 76.827831 70.359716 
L 75.904087 72.400993 
L 75.24311 74.44226 
L 74.786041 76.479957 
L 74.413106 79.186715 
L 74.211457 82.547511 
L 74.213087 86.539755 
L 74.442945 91.784674 
L 75.057503 100.104397 
L 76.455057 115.386565 
L 78.94696 140.086137 
L 81.586032 164.083977 
L 84.091759 184.883516 
L 86.478528 202.902968 
L 88.760665 218.502581 
L 90.952623 231.992772 
L 93.020387 243.386349 
L 94.980327 253.002226 
L 96.848285 261.107442 
L 98.639979 267.925945 
L 100.31979 273.487162 
L 101.952121 278.143011 
L 103.496233 281.895077 
L 104.957813 284.892406 
L 106.402662 287.360576 
L 107.770618 289.281341 
L 109.127753 290.827634 
L 110.565188 292.123653 
L 112.012976 293.12702 
L 113.583974 293.935166 
L 115.321712 294.562335 
L 117.284298 295.020518 
L 119.550042 295.319679 
L 122.537646 295.47524 
L 126.787452 295.44035 
L 133.554678 295.126178 
L 177.239729 292.708706 
L 198.221817 291.847199 
L 220.558341 291.081876 
L 256.475151 290.072995 
L 283.79117 289.432169 
L 322.193935 288.65858 
L 379.38012 287.698087 
L 101.902182 53.944389 
L 96.723631 55.736574 
L 92.052109 57.591786 
L 87.999327 59.501572 
L 85.663833 60.800315 
L 83.619039 62.116048 
L 81.852098 63.445881 
L 80.343584 64.787075 
L 79.07006 66.13711 
L 78.006256 67.493705 
L 76.748397 69.536553 
L 75.824705 71.583927 
L 75.164361 73.63125 
L 74.708228 75.674957 
L 74.33671 78.389647 
L 74.136784 81.760233 
L 74.140174 85.764042 
L 74.371788 91.024096 
L 74.988155 99.367786 
L 76.387597 114.6941 
L 78.881721 139.465781 
L 81.522888 163.534887 
L 84.030426 184.397446 
L 86.418717 202.472733 
L 88.702069 218.121922 
L 90.894906 231.656236 
L 92.963157 243.08832 
L 94.972162 252.964541 
L 96.840058 261.073989 
L 98.631607 267.896232 
L 100.311182 273.460679 
L 101.94316 278.119416 
L 103.486791 281.873996 
L 104.947742 284.87352 
L 106.391758 287.343693 
L 107.758682 289.266216 
L 109.114505 290.814131 
L 110.550174 292.111754 
L 111.995721 293.116634 
L 113.563682 293.926327 
L 115.297235 294.555116 
L 117.25394 295.015041 
L 119.511252 295.316133 
L 122.484887 295.474151 
L 126.709035 295.442654 
L 133.421165 295.13376 
L 176.34957 292.749118 
L 196.741532 291.902865 
L 218.303693 291.153444 
L 252.684467 290.169452 
L 278.611339 289.547035 
L 314.766517 288.798634 
L 368.028419 287.874309 
L 101.902182 54.175964 
L 96.729128 55.966735 
L 92.062411 57.820463 
L 88.013503 59.728708 
L 85.680037 61.0264 
L 83.636846 62.341067 
L 81.871123 63.669822 
L 80.36349 65.009933 
L 79.090567 66.35888 
L 78.027138 67.714387 
L 76.769523 69.755605 
L 75.845815 71.801357 
L 75.185302 73.847069 
L 74.72892 75.889176 
L 74.357024 78.601756 
L 74.156639 81.969737 
L 74.159561 85.970469 
L 74.390709 91.226496 
L 75.006595 99.563809 
L 76.405536 114.878376 
L 78.899069 139.630871 
L 81.539678 163.681015 
L 84.046735 184.526805 
L 86.434621 202.587236 
L 88.717649 218.223234 
L 90.910251 231.745808 
L 92.978372 243.167647 
L 94.987361 253.034678 
L 96.855373 261.136249 
L 98.647192 267.951529 
L 100.327207 273.509965 
L 101.959843 278.163327 
L 103.504371 281.913227 
L 104.966494 284.908666 
L 106.412062 287.37511 
L 107.78091 289.294361 
L 109.139178 290.839254 
L 110.57814 292.133891 
L 112.027866 293.135953 
L 113.60149 293.942765 
L 115.342852 294.568537 
L 117.310533 295.025216 
L 119.583591 295.322709 
L 122.583322 295.476144 
L 126.855444 295.438315 
L 133.670723 295.119562 
L 172.88844 292.909675 
L 191.080059 292.122379 
L 222.572411 291.018899 
L 259.893583 289.987727 
L 288.493551 289.330297 
L 328.995596 288.533835 
L 389.898028 287.540215 
L 101.902182 53.735219 
L 96.718665 55.528681 
L 92.042804 57.385233 
L 87.986524 59.29641 
L 85.649199 60.596104 
L 83.602957 61.912801 
L 81.834918 63.243606 
L 80.325608 64.585779 
L 79.051543 65.936796 
L 77.987402 67.294374 
L 76.729324 69.338694 
L 75.805646 71.387533 
L 75.145455 73.436312 
L 74.689548 75.481462 
L 74.318371 78.198059 
L 74.118859 81.570997 
L 74.122671 85.577585 
L 74.354707 90.841276 
L 74.971507 99.190726 
L 76.371402 114.527648 
L 78.866059 139.316659 
L 81.50773 163.402891 
L 84.015703 184.280595 
L 86.404361 202.369301 
L 88.688006 218.030403 
L 90.881054 231.575321 
L 92.949424 243.016658 
L 94.958444 252.901178 
L 96.826236 261.017741 
L 98.617543 267.846271 
L 100.296723 273.416145 
L 101.92811 278.079737 
L 103.470933 281.838542 
L 104.930832 284.841753 
L 106.373453 287.315293 
L 107.738649 289.240768 
L 109.092277 290.791408 
L 110.524993 292.091724 
L 111.966796 293.099144 
L 113.529687 293.911432 
L 115.256256 294.542935 
L 117.203158 295.005779 
L 119.446433 295.3101 
L 122.39686 295.472224 
L 126.578481 295.446387 
L 133.199652 295.146268 
L 180.365578 292.569536 
L 203.499926 291.654171 
L 228.722221 290.831904 
L 270.521842 289.732336 
L 303.302871 289.023262 
L 350.782245 288.154742 
L 101.902182 54.540466 
L 96.737782 56.329011 
L 92.078628 58.180405 
L 88.035819 60.086224 
L 85.705548 61.38226 
L 83.664883 62.695248 
L 81.901077 64.022308 
L 80.394834 65.360714 
L 79.12286 66.707949 
L 78.060021 68.061743 
L 76.802793 70.100395 
L 75.879064 72.143594 
L 75.218285 74.186769 
L 74.761511 76.226359 
L 74.389022 78.935617 
L 74.187915 82.299497 
L 74.1901 86.295385 
L 74.420512 91.545072 
L 75.035641 99.872347 
L 76.433791 115.168423 
L 78.926393 139.890715 
L 81.566125 163.911008 
L 84.072423 184.730402 
L 86.459672 202.767446 
L 88.742191 218.382679 
L 90.934425 231.886771 
L 93.002341 243.292481 
L 94.962298 252.918986 
L 96.830119 261.03355 
L 98.621495 267.860313 
L 100.300785 273.428662 
L 101.932338 278.09089 
L 103.475388 281.848508 
L 104.935581 284.850683 
L 106.378594 287.323277 
L 107.744275 289.247922 
L 109.098518 290.797797 
L 110.532062 292.097356 
L 111.974914 293.104063 
L 113.539226 293.915622 
L 115.267751 294.546364 
L 117.217397 295.008389 
L 119.4646 295.311804 
L 122.421514 295.472777 
L 126.61501 295.445356 
L 133.261536 295.142783 
L 175.303336 292.797071 
L 195.014452 291.968699 
L 215.692325 291.237793 
L 248.341309 290.282543 
L 306.403358 288.961447 
L 355.413847 288.077836 
L 101.902182 54.440986 
L 96.73542 56.230138 
L 92.074202 58.082169 
L 88.029728 59.988651 
L 85.698585 61.285138 
L 83.65723 62.598585 
L 81.892901 63.926107 
L 80.386278 65.264978 
L 79.114045 66.612681 
L 78.051045 67.966942 
L 76.793711 70.006295 
L 75.869987 72.05019 
L 75.209281 74.094058 
L 74.752613 76.134335 
L 74.380286 78.844499 
L 74.179377 82.209499 
L 74.181763 86.206709 
L 74.412376 91.458126 
L 75.027712 99.788141 
L 76.426077 115.089264 
L 78.918934 139.819799 
L 81.558905 163.84824 
L 84.06541 184.674838 
L 86.452832 202.718265 
L 88.73549 218.339166 
L 90.927825 231.848302 
L 92.995797 243.258414 
L 94.95576 252.888775 
L 96.823532 261.00673 
L 98.614792 267.836491 
L 100.293895 273.407428 
L 101.925166 278.07197 
L 103.467832 281.831601 
L 104.927525 284.835534 
L 106.369874 287.309732 
L 107.734733 289.235784 
L 109.087933 290.786958 
L 110.520073 292.0878 
L 111.961147 293.095717 
L 113.52305 293.908511 
L 115.24826 294.540545 
L 117.193257 295.003959 
L 119.433805 295.308909 
L 122.379729 295.471833 
L 126.553114 295.447097 
L 133.156723 295.148681 
L 180.044169 292.583653 
L 202.951418 291.673847 
L 227.864688 290.857515 
L 269.022489 289.767515 
L 301.196348 289.065728 
L 347.649351 288.20746 
L 101.902182 54.608453 
L 96.739396 56.396582 
L 92.081653 58.247541 
L 88.039982 60.152908 
L 85.710306 61.448635 
L 83.670113 62.76131 
L 81.906666 64.088054 
L 80.400682 65.426141 
L 79.128885 66.773057 
L 78.066157 68.126531 
L 76.809001 70.164705 
L 75.885268 72.207427 
L 75.22444 74.250129 
L 74.767593 76.28925 
L 74.394993 78.997887 
L 74.193752 82.361003 
L 74.195799 86.355988 
L 74.426074 91.604492 
L 75.041062 99.929894 
L 76.439063 115.222522 
L 78.931492 139.939179 
L 81.571061 163.953904 
L 84.077217 184.768374 
L 86.464347 202.801056 
L 88.746771 218.412415 
L 90.938936 231.91306 
L 93.006815 243.315761 
L 94.966768 252.939631 
L 96.834622 261.051877 
L 98.626077 267.876591 
L 100.305496 273.443172 
L 101.937241 278.103818 
L 103.480554 281.860059 
L 104.941091 284.861033 
L 106.384557 287.33253 
L 107.750801 289.256214 
L 109.105759 290.805201 
L 110.540265 292.103883 
L 111.984337 293.109762 
L 113.5503 293.920476 
L 115.281099 294.550334 
L 117.233937 295.011408 
L 119.485709 295.313771 
L 122.45018 295.473407 
L 126.657518 295.444143 
L 133.33364 295.138713 
L 175.773517 292.77546 
L 195.78891 291.939058 
L 216.860768 291.199855 
L 250.278386 290.231756 
L 275.342407 289.621021 
L 310.114144 288.888514 
L 360.989145 287.986839 
L 101.902182 54.322812 
L 96.732615 56.112686 
L 92.068945 57.965474 
L 88.022493 59.872741 
L 85.690314 61.169766 
L 83.64814 62.483756 
L 81.88319 63.811829 
L 80.376116 65.151253 
L 79.103575 66.49951 
L 78.040383 67.854327 
L 76.782924 69.894512 
L 75.859207 71.939235 
L 75.198587 73.983925 
L 74.742046 76.025018 
L 74.369912 78.73626 
L 74.169236 82.102589 
L 74.171861 86.101369 
L 74.402713 91.354842 
L 75.018294 99.688111 
L 76.416916 114.995229 
L 78.910074 139.735556 
L 81.55033 163.773675 
L 84.057081 184.608831 
L 86.44471 202.659841 
L 88.727533 218.287473 
L 90.919987 231.802602 
L 92.988025 243.217943 
L 94.997004 253.079146 
L 96.865091 261.175721 
L 98.657082 267.986586 
L 100.337377 273.541209 
L 101.970432 278.191161 
L 103.515532 281.938093 
L 104.978401 284.930941 
L 106.424958 287.395018 
L 107.795032 289.312192 
L 109.15486 290.855168 
L 110.505854 292.076439 
L 111.944822 293.085791 
L 113.503878 293.900051 
L 115.225169 294.533617 
L 117.164672 294.998676 
L 119.397367 295.305444 
L 122.330333 295.470676 
L 126.480048 295.449114 
L 133.033274 295.155601 
L 179.129757 292.624055 
L 201.39821 291.730038 
L 225.447947 290.930492 
L 264.827274 289.867402 
L 295.33252 289.186001 
L 338.987662 288.356268 
L 101.902182 54.799468 
L 96.743931 56.586431 
L 92.090152 58.436166 
L 88.051678 60.340262 
L 85.723678 61.635121 
L 83.684809 62.946917 
L 81.922369 64.272772 
L 80.417115 65.609965 
L 79.145816 66.955984 
L 78.083399 68.308561 
L 76.826448 70.34539 
L 75.902704 72.386774 
L 75.241738 74.428146 
L 74.784686 76.465948 
L 74.411776 79.172844 
L 74.210156 82.533811 
L 74.211817 86.526256 
L 74.441705 91.771437 
L 75.056295 100.091578 
L 76.453882 115.374514 
L 78.945823 140.075342 
L 81.584932 164.074422 
L 84.09069 184.875058 
L 86.477486 202.895482 
L 88.759644 218.495958 
L 90.951617 231.986917 
L 93.019389 243.381164 
L 94.97933 252.997628 
L 96.847281 261.103361 
L 98.638957 267.92232 
L 100.31874 273.483931 
L 101.951028 278.140133 
L 103.495081 281.892505 
L 104.956584 284.890102 
L 106.401331 287.358517 
L 107.769161 289.279496 
L 109.126136 290.825987 
L 110.563355 292.122202 
L 112.010869 293.125753 
L 113.581495 293.934088 
L 115.318722 294.561456 
L 117.280588 295.019851 
L 119.5453 295.319248 
L 122.531193 295.475109 
L 126.777854 295.440634 
L 133.538317 295.127109 
L 177.129896 292.713673 
L 198.038629 291.854051 
L 220.278499 291.090697 
L 256.002593 290.084909 
L 283.14345 289.446378 
L 321.261444 288.675939 
L 377.947275 287.719987 
L 101.902182 53.973276 
L 96.724316 55.765285 
L 92.053394 57.620312 
L 88.001096 59.529905 
L 85.665854 60.828518 
L 83.62126 62.144118 
L 81.854471 63.473816 
L 80.346067 64.814876 
L 79.072618 66.164774 
L 78.00886 67.521234 
L 76.751032 69.563878 
L 75.827338 71.61105 
L 75.166972 73.658172 
L 74.710809 75.701679 
L 74.339244 78.416107 
L 74.13926 81.786367 
L 74.142591 85.789793 
L 74.374148 91.049344 
L 74.990455 99.392239 
L 76.389835 114.717087 
L 78.883884 139.486375 
L 81.524982 163.553116 
L 84.03246 184.413583 
L 86.420701 202.487018 
L 88.704012 218.134561 
L 90.896819 231.667411 
L 92.965055 243.098216 
L 94.974057 252.973291 
L 96.841968 261.081757 
L 98.633551 267.903131 
L 100.31318 273.466828 
L 101.94524 278.124895 
L 103.488983 281.878891 
L 104.95008 284.877905 
L 106.394289 287.347614 
L 107.761452 289.269728 
L 109.117579 290.817267 
L 110.553657 292.114517 
L 111.999724 293.119046 
L 113.568389 293.92838 
L 115.302911 294.556794 
L 117.260978 295.016315 
L 119.520242 295.316959 
L 122.49711 295.474407 
L 126.727191 295.442125 
L 133.452045 295.132009 
L 176.554223 292.739796 
L 197.080974 291.890039 
L 218.819359 291.136975 
L 253.548096 290.147296 
L 279.788253 289.520685 
L 316.448139 288.766562 
L 370.58629 287.834049 
L 101.902182 54.123232 
L 96.727876 55.914325 
L 92.060065 57.768391 
L 88.010275 59.676987 
L 85.676347 60.974918 
L 83.632791 62.289828 
L 81.866791 63.618828 
L 80.358957 64.959186 
L 79.085897 66.308381 
L 78.022382 67.664136 
L 76.764712 69.705725 
L 75.841007 71.751846 
L 75.180532 73.797925 
L 74.724207 75.840396 
L 74.352398 78.553457 
L 74.152117 81.922031 
L 74.155145 85.923464 
L 74.3864 91.180407 
L 75.002395 99.519173 
L 76.40145 114.836415 
L 78.895118 139.593279 
L 81.535854 163.647741 
L 84.04302 184.497349 
L 86.430998 202.561164 
L 88.7141 218.200165 
L 90.906756 231.725413 
L 92.974906 243.149584 
L 94.983899 253.018708 
L 96.851884 261.122073 
L 98.643642 267.938939 
L 100.323556 273.498743 
L 101.956042 278.15333 
L 103.500366 281.904296 
L 104.962221 284.900665 
L 106.407435 287.367958 
L 107.775844 289.287954 
L 109.133554 290.833536 
L 110.571764 292.128854 
L 112.020535 293.131558 
L 113.592865 293.939027 
L 115.332442 294.565487 
L 117.297612 295.022906 
L 119.567064 295.321221 
L 122.560816 295.475703 
L 126.82193 295.439322 
L 133.613491 295.122828 
L 177.636294 292.690815 
L 198.884512 291.822501 
L 221.572643 291.05005 
L 258.192886 290.029949 
L 286.150379 289.38078 
L 325.599361 288.595716 
L 384.63153 287.618638 
L 101.902182 53.839329 
L 96.721136 55.632156 
L 92.047435 57.488041 
L 87.992897 59.398525 
L 85.656482 60.697746 
L 83.610961 62.013963 
L 81.843469 63.344284 
L 80.334555 64.685971 
L 79.060759 66.036498 
L 77.996785 67.393587 
L 76.738816 69.437175 
L 75.815131 71.485285 
L 75.154864 73.533339 
L 74.698845 75.57777 
L 74.327498 78.293419 
L 74.12778 81.665185 
L 74.131381 85.670391 
L 74.363208 90.932271 
L 74.979792 99.278854 
L 76.379462 114.610497 
L 78.873853 139.390882 
L 81.515273 163.46859 
L 84.02303 184.338756 
L 86.411506 202.420783 
L 88.695005 218.075956 
L 90.887948 231.615596 
L 92.956259 243.052328 
L 94.965271 252.932717 
L 96.833114 261.045739 
L 98.624542 267.87114 
L 100.303918 273.438313 
L 101.935599 278.099489 
L 103.478823 281.856191 
L 104.939245 284.857567 
L 106.38256 287.329431 
L 107.748615 289.253437 
L 109.103334 290.802721 
L 110.537517 292.101698 
L 111.98118 293.107854 
L 113.546589 293.918851 
L 115.276626 294.549005 
L 117.228394 295.010398 
L 119.478634 295.313113 
L 122.44057 295.473198 
L 126.643263 295.444551 
L 133.309449 295.14008 
L 175.615333 292.782719 
L 195.528048 291.94902 
L 216.466737 291.212613 
L 249.624023 290.248849 
L 274.455918 289.641291 
L 308.857151 288.913093 
L 359.096658 288.017538 
L 101.902182 54.362736 
L 96.733562 56.152366 
L 92.070721 58.004898 
L 88.024937 59.9119 
L 85.693108 61.208743 
L 83.651211 62.52255 
L 81.88647 63.850437 
L 80.379549 65.189674 
L 79.107112 66.537744 
L 78.043985 67.892373 
L 76.786568 69.932277 
L 75.862849 71.97672 
L 75.202199 74.021132 
L 74.745616 76.06195 
L 74.373416 78.772827 
L 74.172662 82.138707 
L 74.175206 86.136957 
L 74.405977 91.389736 
L 75.021475 99.721905 
L 76.420011 115.026998 
L 78.913067 139.764017 
L 81.553227 163.798866 
L 84.059894 184.631131 
L 86.447454 202.679579 
L 88.730221 218.304937 
L 90.922634 231.818042 
L 92.99065 243.231616 
L 94.999627 253.091235 
L 96.867734 261.186451 
L 98.659772 267.996115 
L 100.340144 273.549702 
L 101.973313 278.198727 
L 103.518569 281.944852 
L 104.981641 284.936995 
L 106.428467 287.400429 
L 107.798875 289.317038 
L 109.159128 290.859492 
L 110.510655 292.080279 
L 111.950334 293.089145 
L 113.51035 293.902911 
L 115.232962 294.53596 
L 117.174318 295.000463 
L 119.40966 295.306618 
L 122.346992 295.471071 
L 126.504677 295.448439 
L 133.074853 295.153274 
L 179.436116 292.61048 
L 201.917386 291.711177 
L 226.253875 290.906024 
L 266.221319 289.833968 
L 297.276089 289.145794 
L 341.848933 288.306604 
L 101.902182 54.735862 
L 96.742421 56.523213 
L 92.087322 58.373355 
L 88.047783 60.277875 
L 85.719225 61.573023 
L 83.679915 62.885112 
L 81.917139 64.211263 
L 80.411643 65.548753 
L 79.140177 66.895071 
L 78.077657 68.247947 
L 76.820638 70.285224 
L 75.896897 72.327053 
L 75.235978 74.368868 
L 74.778993 76.407109 
L 74.406186 79.114585 
L 74.204693 82.476268 
L 74.206482 86.469558 
L 74.436499 91.715846 
L 75.051222 100.037739 
L 76.448947 115.323903 
L 78.94105 140.030001 
L 81.580312 164.034291 
L 84.086203 184.839534 
L 86.47311 202.86404 
L 88.755357 218.46814 
L 90.947394 231.962324 
L 93.015201 243.359386 
L 94.975146 252.978317 
L 96.843065 261.086218 
L 98.634667 267.907094 
L 100.314328 273.47036 
L 101.946435 278.128042 
L 103.490242 281.881703 
L 104.951422 284.880424 
L 106.395743 287.349865 
L 107.763043 289.271746 
L 109.119345 290.819068 
L 110.555659 292.116105 
L 112.002024 293.120432 
L 113.571094 293.92956 
L 115.306174 294.557757 
L 117.265024 295.017046 
L 119.525411 295.317433 
L 122.504138 295.474554 
L 126.737634 295.441819 
L 133.469816 295.131001 
L 176.67233 292.734425 
L 197.277108 291.882645 
L 219.117682 291.127474 
L 254.048627 290.134504 
L 280.47122 289.505463 
L 317.425599 288.748018 
L 372.07637 287.810746 
L 101.902182 54.092664 
L 96.727151 55.883943 
L 92.058705 57.738205 
L 88.008404 59.647004 
L 85.674208 60.945074 
L 83.63044 62.260125 
L 81.864279 63.589267 
L 80.356329 64.929768 
L 79.08319 66.279106 
L 78.019625 67.635005 
L 76.761923 69.676809 
L 75.83822 71.723145 
L 75.177768 73.769436 
L 74.721475 75.812119 
L 74.349716 78.525458 
L 74.149496 81.894376 
L 74.152586 85.896215 
L 74.383902 91.15369 
L 74.999961 99.493297 
L 76.399082 114.81209 
L 78.892827 139.571487 
L 81.533638 163.628451 
L 84.040867 184.480274 
L 86.428899 202.546049 
L 88.712044 218.186792 
L 90.90473 231.71359 
L 92.972898 243.139113 
L 94.981892 253.00945 
L 96.849862 261.113855 
L 98.641584 267.93164 
L 100.321441 273.492238 
L 101.95384 278.147534 
L 103.498044 281.899118 
L 104.959745 284.896026 
L 106.404754 287.363812 
L 107.772908 289.28424 
L 109.130295 290.830221 
L 110.56807 292.125933 
L 112.016288 293.129009 
L 113.587869 293.936858 
L 115.326413 294.563717 
L 117.29013 295.021566 
L 119.557499 295.320356 
L 122.547794 295.475444 
L 126.80255 295.439901 
L 133.580423 295.124712 
L 177.41299 292.700881 
L 198.511106 291.836401 
L 221.000742 291.067967 
L 257.223413 290.054194 
L 284.817945 289.409734 
L 323.674311 288.631151 
L 381.659357 287.663448 
L 101.902182 53.898635 
L 96.722544 55.691099 
L 92.050073 57.546604 
L 87.996527 59.456694 
L 85.660632 60.755645 
L 83.615521 62.07159 
L 81.84834 63.401635 
L 80.339651 64.743044 
L 79.066009 66.093293 
L 78.002131 67.450103 
L 76.744224 69.493273 
L 75.820535 71.540968 
L 75.160225 73.588609 
L 74.704141 75.632631 
L 74.332698 78.347739 
L 74.132862 81.718839 
L 74.136344 85.723256 
L 74.368051 90.984105 
L 74.984513 99.329056 
L 76.384054 114.65769 
L 78.878294 139.433162 
L 81.519572 163.506014 
L 84.027205 184.371886 
L 86.415576 202.450109 
L 88.698992 218.101904 
L 90.891875 231.638538 
L 92.960153 243.072646 
L 94.96916 252.950682 
L 96.837034 261.061687 
L 98.62853 267.885305 
L 100.308018 273.450939 
L 101.939867 278.110738 
L 103.48332 281.866242 
L 104.944041 284.866573 
L 106.387751 287.337483 
L 107.754296 289.260651 
L 109.109638 290.809163 
L 110.544659 292.107375 
L 111.989385 293.112811 
L 113.556234 293.923072 
L 115.288253 294.552456 
L 117.242805 295.013021 
L 119.497031 295.31482 
L 122.465561 295.473739 
L 126.680341 295.443486 
L 133.372398 295.136521 
L 176.02788 292.76381 
L 196.209038 291.92306 
L 217.496357 291.179352 
L 251.336327 290.204256 
L 276.777933 289.588385 
L 312.153863 288.848898 
L 364.068592 287.937293 
L 101.902182 54.258254 
L 96.731082 56.048522 
L 92.066072 57.901723 
L 88.018541 59.809421 
L 85.685796 61.106738 
L 83.643175 62.421026 
L 81.877885 63.749399 
L 80.370565 65.089125 
L 79.097856 66.437686 
L 78.03456 67.792806 
L 76.777032 69.833445 
L 75.853319 71.87862 
L 75.192746 73.923759 
L 74.736275 75.965299 
L 74.364246 78.677129 
L 74.163698 82.044184 
L 74.166453 86.043822 
L 74.397435 91.298418 
L 75.013151 99.633465 
L 76.411913 114.943858 
L 78.905236 139.689534 
L 81.545647 163.732939 
L 84.052532 184.572771 
L 86.440274 202.627922 
L 88.723187 218.259233 
L 90.915706 231.777635 
L 92.983781 243.195832 
L 94.992764 253.059597 
L 96.860818 261.158369 
L 98.652733 267.971175 
L 100.332905 273.527474 
L 101.965776 278.178926 
L 103.510624 281.927162 
L 104.973165 284.921149 
L 106.419287 287.386267 
L 107.788821 289.304355 
L 109.147963 290.848174 
L 110.498096 292.070228 
L 111.935918 293.080363 
L 113.493423 293.895423 
L 115.212582 294.529825 
L 117.149099 294.99578 
L 119.377527 295.30354 
L 122.303459 295.470028 
L 126.440343 295.450192 
L 132.966314 295.159342 
L 178.639811 292.64585 
L 200.57042 291.760277 
L 224.166872 290.969662 
L 262.621528 289.920806 
L 292.267343 289.250123 
L 334.494638 288.435303 
L 398.487273 287.414894 
L 101.902182 53.568 
L 96.714695 55.362483 
L 92.035365 57.220107 
L 87.97629 59.132397 
L 85.637501 60.432849 
L 83.590103 61.750316 
L 81.821186 63.081899 
L 80.311242 64.424855 
L 79.036744 65.776657 
L 77.972333 67.135021 
L 76.714081 69.180517 
L 75.790415 71.230528 
L 75.130347 73.28047 
L 74.674621 75.326774 
L 74.303717 78.044896 
L 74.104536 81.419713 
L 74.108685 85.428524 
L 74.341058 90.695122 
L 74.958204 99.049175 
L 76.358461 114.394579 
L 78.853544 139.197441 
L 81.495617 163.297365 
L 84.003939 184.187175 
L 86.392889 202.286607 
L 88.676768 217.957233 
L 90.869987 231.510626 
L 92.938452 242.95936 
L 94.947484 252.850514 
L 96.815194 260.972764 
L 98.606309 267.80632 
L 100.285174 273.380533 
L 101.91609 278.048005 
L 103.458271 281.810186 
L 104.917331 284.816344 
L 106.358843 287.292573 
L 107.722665 289.220406 
L 109.074547 290.773223 
L 110.504916 292.075689 
L 111.943745 293.085135 
L 113.502613 293.899492 
L 115.223646 294.533159 
L 117.162789 294.998326 
L 119.394967 295.305215 
L 122.327081 295.470598 
L 126.475242 295.449245 
L 133.025163 295.156055 
L 179.070189 292.6267 
L 201.297401 291.73371 
L 225.29168 290.935251 
L 264.557545 289.873899 
L 294.957035 289.193809 
L 338.435987 288.365903 
L 101.902182 54.811791 
L 96.744224 56.598679 
L 92.090701 58.448334 
L 88.052432 60.352349 
L 85.72454 61.647152 
L 83.685757 62.95889 
L 81.923382 64.284689 
L 80.418175 65.621824 
L 79.146908 66.967785 
L 78.084512 68.320304 
L 76.827574 70.357046 
L 75.903829 72.398343 
L 75.242855 74.43963 
L 74.785789 76.477347 
L 74.412858 79.18413 
L 74.211214 82.544959 
L 74.21285 86.53724 
L 74.442714 91.782207 
L 75.057278 100.102009 
L 76.454838 115.38432 
L 78.946748 140.084126 
L 81.585827 164.082197 
L 84.09156 184.88194 
L 86.478334 202.901573 
L 88.760475 218.501347 
L 90.952435 231.991681 
L 93.020201 243.385383 
L 94.980141 253.00137 
L 96.848098 261.106682 
L 98.639789 267.925269 
L 100.319594 273.48656 
L 101.951917 278.142475 
L 103.496019 281.894598 
L 104.957584 284.891977 
L 106.402414 287.360193 
L 107.770347 289.280998 
L 109.127452 290.827327 
L 110.564847 292.123382 
L 112.012584 293.126784 
L 113.583512 293.934965 
L 115.321155 294.562171 
L 117.283606 295.020394 
L 119.549159 295.319599 
L 122.536444 295.475216 
L 126.785663 295.440403 
L 133.551628 295.126351 
L 177.219238 292.709632 
L 198.187629 291.848477 
L 220.506097 291.083522 
L 256.386884 290.075218 
L 283.670142 289.434821 
L 322.019616 288.66182 
L 379.112098 287.702176 
L 101.902182 53.949785 
L 96.723759 55.741937 
L 92.052349 57.597115 
L 87.999658 59.506864 
L 85.664211 60.805583 
L 83.619454 62.121292 
L 81.852542 63.451099 
L 80.344048 64.792269 
L 79.070538 66.142277 
L 78.006743 67.498848 
L 76.748889 69.541657 
L 75.825197 71.588994 
L 75.164849 73.636279 
L 74.70871 75.679948 
L 74.337184 78.39459 
L 74.137246 81.765115 
L 74.140625 85.768852 
L 74.372229 91.028812 
L 74.988584 99.372354 
L 76.388015 114.698394 
L 78.882125 139.469628 
L 81.523279 163.538292 
L 84.030806 184.40046 
L 86.419088 202.475402 
L 88.702432 218.124283 
L 90.895263 231.658324 
L 92.963512 243.090169 
L 94.972516 252.966175 
L 96.840415 261.07544 
L 98.63197 267.897521 
L 100.311556 273.461827 
L 101.943549 278.12044 
L 103.4872 281.874911 
L 104.948179 284.874339 
L 106.392231 287.344426 
L 107.759199 289.266872 
L 109.115079 290.814716 
L 110.550824 292.11227 
L 111.996469 293.117084 
L 113.564561 293.92671 
L 115.298295 294.555429 
L 117.255254 295.015279 
L 119.51293 295.316287 
L 122.487169 295.474199 
L 126.712424 295.442556 
L 133.426928 295.133433 
L 176.387708 292.74738 
L 196.804749 291.900474 
L 218.399668 291.150374 
L 252.845055 290.165324 
L 278.830038 289.542127 
L 315.078737 288.792663 
L 368.502788 287.866818 
L 101.902182 54.16616 
L 96.728896 55.95699 
L 92.061975 57.810782 
L 88.012903 59.719092 
L 85.679351 61.016828 
L 83.636092 62.33154 
L 81.870318 63.660341 
L 80.362647 65.000498 
L 79.089699 66.349491 
L 78.026253 67.705044 
L 76.768628 69.746331 
L 75.844921 71.792152 
L 75.184415 73.837932 
L 74.728043 75.880107 
L 74.356164 78.592776 
L 74.155799 81.960867 
L 74.15874 85.96173 
L 74.389908 91.217927 
L 75.005814 99.55551 
L 76.404776 114.870575 
L 78.898334 139.623882 
L 81.538967 163.674828 
L 84.046044 184.521329 
L 86.433947 202.582389 
L 88.716989 218.218945 
L 90.909601 231.742016 
L 92.977727 243.164288 
L 94.986717 253.031709 
L 96.854724 261.133613 
L 98.646532 267.949188 
L 100.326528 273.507879 
L 101.959136 278.161468 
L 103.503626 281.911566 
L 104.965699 284.907178 
L 106.411202 287.37378 
L 107.779968 289.29317 
L 109.138132 290.838191 
L 110.576954 292.132955 
L 112.026502 293.135136 
L 113.599886 293.94207 
L 115.340916 294.56797 
L 117.308129 295.024787 
L 119.580516 295.322433 
L 122.579133 295.476063 
L 126.849205 295.438503 
L 133.660064 295.120171 
L 172.825846 292.91263 
L 190.979038 292.126395 
L 222.385248 291.024714 
L 259.574628 289.995616 
L 288.053546 289.339735 
L 328.356784 288.545414 
L 388.905199 287.554905 
L 101.902182 53.754752 
L 96.719129 55.548095 
L 92.043672 57.404522 
L 87.98772 59.315569 
L 85.650565 60.615174 
L 83.604459 61.93178 
L 81.836522 63.262495 
L 80.327287 64.604577 
L 79.053272 65.955501 
L 77.989162 67.312988 
L 76.731104 69.357171 
L 75.807425 71.405873 
L 75.14722 73.454516 
L 74.691292 75.499531 
L 74.320084 78.21595 
L 74.120533 81.588668 
L 74.124305 85.594997 
L 74.356302 90.858348 
L 74.973061 99.20726 
L 76.372914 114.543192 
L 78.867521 139.330584 
L 81.509145 163.415218 
L 84.017078 184.291507 
L 86.405701 202.37896 
L 88.689319 218.03895 
L 90.882347 231.582877 
L 92.950706 243.02335 
L 94.959725 252.907095 
L 96.827526 261.022994 
L 98.618856 267.850937 
L 100.298073 273.420305 
L 101.929515 278.083443 
L 103.472413 281.841854 
L 104.93241 284.84472 
L 106.375161 287.317946 
L 107.740518 289.243145 
L 109.094351 290.793531 
L 110.527341 292.093596 
L 111.969493 293.100779 
L 113.532855 293.912824 
L 115.260073 294.544075 
L 117.207887 295.006647 
L 119.452466 295.310667 
L 122.405045 295.472409 
L 126.590605 295.446046 
L 133.220183 295.145112 
L 175.035452 292.809429 
L 194.574443 291.985627 
L 215.030314 291.259432 
L 247.248282 290.311454 
L 304.323079 289.002832 
L 352.303574 288.129347 
L 101.902182 54.507656 
L 96.737003 56.296401 
L 92.077169 58.148005 
L 88.03381 60.054043 
L 85.703251 61.350228 
L 83.662359 62.663367 
L 81.898381 63.99058 
L 80.392012 65.329139 
L 79.119952 66.676528 
L 78.057061 68.030476 
L 76.799798 70.06936 
L 75.87607 72.112788 
L 75.215315 74.156192 
L 74.758576 76.196009 
L 74.386141 78.905565 
L 74.185099 82.269815 
L 74.18735 86.266139 
L 74.417828 91.516396 
L 75.033026 99.844575 
L 76.431247 115.142316 
L 78.923933 139.867326 
L 81.563744 163.890306 
L 84.07011 184.712076 
L 86.457416 202.751226 
L 88.739981 218.368328 
L 90.932248 231.874084 
L 93.000182 243.281245 
L 94.960142 252.909022 
L 96.827946 261.024705 
L 98.619284 267.852457 
L 100.298512 273.421659 
L 101.929972 278.08465 
L 103.472895 281.842932 
L 104.932924 284.845687 
L 106.375717 287.31881 
L 107.741127 289.243919 
L 109.095026 290.794223 
L 110.528106 292.094205 
L 111.970371 293.101311 
L 113.533887 293.913278 
L 115.261317 294.544446 
L 117.209428 295.00693 
L 119.454431 295.310851 
L 122.407712 295.472469 
L 126.594557 295.445934 
L 133.226877 295.144736 
L 175.078725 292.807431 
L 194.645459 291.98289 
L 215.13707 291.255935 
L 247.424325 290.306785 
L 304.657469 288.996155 
L 352.802789 288.121042 
L 101.902182 54.496919 
L 96.736748 56.285729 
L 92.076691 58.137402 
L 88.033153 60.043512 
L 85.702499 61.339745 
L 83.661533 62.652934 
L 81.897498 63.980196 
L 80.391089 65.318805 
L 79.119001 66.666245 
L 78.056092 68.020244 
L 76.798817 70.059203 
L 75.87509 72.102706 
L 75.214343 74.146185 
L 74.757616 76.186076 
L 74.385198 78.89573 
L 74.184177 82.260101 
L 74.18645 86.256567 
L 74.41695 91.507012 
L 75.03217 99.835486 
L 76.430414 115.133772 
L 78.923128 139.859671 
L 81.562965 163.883531 
L 84.069353 184.706079 
L 86.456677 202.745917 
L 88.739257 218.363631 
L 90.931535 231.869932 
L 92.999476 243.277568 
L 94.959436 252.905761 
L 96.827235 261.02181 
L 98.61856 267.849885 
L 100.297769 273.419367 
L 101.929198 278.082608 
L 103.47208 281.841107 
L 104.932054 284.844052 
L 106.374776 287.317348 
L 107.740097 289.242609 
L 109.093883 290.793053 
L 110.526812 292.093174 
L 111.968885 293.10041 
L 113.532141 293.91251 
L 115.259213 294.543818 
L 117.206821 295.006451 
L 119.451106 295.310539 
L 122.4032 295.472367 
L 126.587871 295.446123 
L 133.215553 295.145373 
L 175.005537 292.810811 
L 194.525362 291.987519 
L 214.956552 291.261849 
L 247.126696 290.314681 
L 304.092278 289.007446 
L 351.959174 288.135084 
L 101.902182 54.515072 
L 96.737179 56.303772 
L 92.077499 58.155329 
L 88.034264 60.061317 
L 85.70377 61.357468 
L 83.662929 62.670573 
L 81.89899 63.997752 
L 80.39265 65.336276 
L 79.120609 66.68363 
L 78.05773 68.037544 
L 76.800475 70.076375 
L 75.876746 72.119751 
L 75.215987 74.163103 
L 74.759239 76.202869 
L 74.386792 78.912357 
L 74.185735 82.276524 
L 74.187972 86.272749 
L 74.418435 91.522878 
L 75.033617 99.850852 
L 76.431822 115.148217 
L 78.924489 139.872612 
L 81.564282 163.894985 
L 84.070633 184.716219 
L 86.457926 202.754892 
L 88.74048 218.371572 
L 90.93274 231.876952 
L 93.00067 243.283785 
L 94.960629 252.911274 
L 96.828438 261.026704 
L 98.619783 267.854232 
L 100.299026 273.423242 
L 101.930507 278.086061 
L 103.473458 281.844192 
L 104.933524 284.846816 
L 106.376367 287.31982 
L 107.741838 289.244824 
L 109.095815 290.795031 
L 110.529 292.094918 
L 111.971398 293.101933 
L 113.535094 293.913808 
L 115.262771 294.54488 
L 117.211228 295.00726 
L 119.456728 295.311067 
L 122.41083 295.472539 
L 126.599176 295.445804 
L 133.234703 295.144295 
L 175.129364 292.805093 
L 194.728594 291.979689 
L 215.262089 291.251844 
L 247.630591 290.301321 
L 305.049589 288.988338 
L 353.388549 288.111316 
L 101.902182 54.484338 
L 96.736449 56.273225 
L 92.076131 58.124978 
L 88.032382 60.031171 
L 85.701619 61.327462 
L 83.660565 62.640709 
L 81.896464 63.96803 
L 80.390007 65.306698 
L 79.117886 66.654197 
L 78.054957 68.008255 
L 76.797669 70.047302 
L 75.873942 72.090894 
L 75.213205 74.134459 
L 74.75649 76.174438 
L 74.384093 78.884206 
L 74.183097 82.248719 
L 74.185396 86.245352 
L 74.415921 91.496016 
L 75.031167 99.824836 
L 76.429438 115.12376 
L 78.079415 131.724791 
L 78.079415 131.724791 
" clip-path="url(#p9af41c3514)" style="fill: none; stroke: #1f77b4; stroke-width: 1.5; stroke-linecap: square"/>
   </g>
   <g id="line2d_13">
    <defs>
     <path id="m0af3613082" d="M 0 5 
C 1.326016 5 2.597899 4.473168 3.535534 3.535534 
C 4.473168 2.597899 5 1.326016 5 0 
C 5 -1.326016 4.473168 -2.597899 3.535534 -3.535534 
C 2.597899 -4.473168 1.326016 -5 0 -5 
C -1.326016 -5 -2.597899 -4.473168 -3.535534 -3.535534 
C -4.473168 -2.597899 -5 -1.326016 -5 0 
C -5 1.326016 -4.473168 2.597899 -3.535534 3.535534 
C -2.597899 4.473168 -1.326016 5 0 5 
z
" style="stroke: #000000"/>
    </defs>
    <g clip-path="url(#p9af41c3514)">
     <use xlink:href="#m0af3613082" x="73.832727" y="82.201966" style="stroke: #000000"/>
    </g>
   </g>
   <g id="patch_3">
    <path d="M 57.6 307.584 
L 57.6 41.472 
" style="fill: none; stroke: #000000; stroke-width: 0.8; stroke-linejoin: miter; stroke-linecap: square"/>
   </g>
   <g id="patch_4">
    <path d="M 414.72 307.584 
L 414.72 41.472 
" style="fill: none; stroke: #000000; stroke-width: 0.8; stroke-linejoin: miter; stroke-linecap: square"/>
   </g>
   <g id="patch_5">
    <path d="M 57.6 307.584 
L 414.72 307.584 
" style="fill: none; stroke: #000000; stroke-width: 0.8; stroke-linejoin: miter; stroke-linecap: square"/>
   </g>
   <g id="patch_6">
    <path d="M 57.6 41.472 
L 414.72 41.472 
" style="fill: none; stroke: #000000; stroke-width: 0.8; stroke-linejoin: miter; stroke-linecap: square"/>
   </g>
  </g>
 </g>
 <defs>
  <clipPath id="p9af41c3514">
   <rect x="57.6" y="41.472" width="357.12" height="266.112"/>
  </clipPath>
 </defs>
</svg>
