<?xml version="1.0" encoding="utf-8" standalone="no"?>
<!DOCTYPE svg PUBLIC "-//W3C//DTD SVG 1.1//EN"
  "http://www.w3.org/Graphics/SVG/1.1/DTD/svg11.dtd">
<svg xmlns:xlink="http://www.w3.org/1999/xlink" width="460.8pt" height="345.6pt" viewBox="0 0 460.8 345.6" xmlns="http://www.w3.org/2000/svg" version="1.1">
 <metadata>
  <rdf:RDF xmlns:dc="http://purl.org/dc/elements/1.1/" xmlns:cc="http://creativecommons.org/ns#" xmlns:rdf="http://www.w3.org/1999/02/22-rdf-syntax-ns#">
   <cc:Work>
    <dc:type rdf:resource="http://purl.org/dc/dcmitype/StillImage"/>
    <dc:date>2022-02-17T10:55:10.030976</dc:date>
    <dc:format>image/svg+xml</dc:format>
    <dc:creator>
     <cc:Agent>
      <dc:title>Matplotlib v3.5.0rc1, https://matplotlib.org/</dc:title>
     </cc:Agent>
    </dc:creator>
   </cc:Work>
  </rdf:RDF>
 </metadata>
 <defs>
  <style type="text/css">*{stroke-linejoin: round; stroke-linecap: butt}</style>
 </defs>
 <g id="figure_1">
  <g id="patch_1">
   <path d="M 0 345.6 
L 460.8 345.6 
L 460.8 0 
L 0 0 
z
" style="fill: #ffffff"/>
  </g>
  <g id="axes_1">
   <g id="patch_2">
    <path d="M 57.6 162.432 
L 414.72 162.432 
L 414.72 41.472 
L 57.6 41.472 
z
" style="fill: #ffffff"/>
   </g>
   <g id="matplotlib.axis_1">
    <g id="xtick_1">
     <g id="line2d_1">
      <defs>
       <path id="m2dc5f3db20" d="M 0 0 
L 0 3.5 
" style="stroke: #000000; stroke-width: 0.8"/>
      </defs>
      <g>
       <use xlink:href="#m2dc5f3db20" x="73.832727" y="162.432" style="stroke: #000000; stroke-width: 0.8"/>
      </g>
     </g>
     <g id="text_1">
      <!-- 0 -->
      <g transform="translate(70.651477 177.030437)scale(0.1 -0.1)">
       <defs>
        <path id="DejaVuSans-30" d="M 2034 4250 
Q 1547 4250 1301 3770 
Q 1056 3291 1056 2328 
Q 1056 1369 1301 889 
Q 1547 409 2034 409 
Q 2525 409 2770 889 
Q 3016 1369 3016 2328 
Q 3016 3291 2770 3770 
Q 2525 4250 2034 4250 
z
M 2034 4750 
Q 2819 4750 3233 4129 
Q 3647 3509 3647 2328 
Q 3647 1150 3233 529 
Q 2819 -91 2034 -91 
Q 1250 -91 836 529 
Q 422 1150 422 2328 
Q 422 3509 836 4129 
Q 1250 4750 2034 4750 
z
" transform="scale(0.015625)"/>
       </defs>
       <use xlink:href="#DejaVuSans-30"/>
      </g>
     </g>
    </g>
    <g id="xtick_2">
     <g id="line2d_2">
      <g>
       <use xlink:href="#m2dc5f3db20" x="114.405417" y="162.432" style="stroke: #000000; stroke-width: 0.8"/>
      </g>
     </g>
     <g id="text_2">
      <!-- 5000 -->
      <g transform="translate(101.680417 177.030437)scale(0.1 -0.1)">
       <defs>
        <path id="DejaVuSans-35" d="M 691 4666 
L 3169 4666 
L 3169 4134 
L 1269 4134 
L 1269 2991 
Q 1406 3038 1543 3061 
Q 1681 3084 1819 3084 
Q 2600 3084 3056 2656 
Q 3513 2228 3513 1497 
Q 3513 744 3044 326 
Q 2575 -91 1722 -91 
Q 1428 -91 1123 -41 
Q 819 9 494 109 
L 494 744 
Q 775 591 1075 516 
Q 1375 441 1709 441 
Q 2250 441 2565 725 
Q 2881 1009 2881 1497 
Q 2881 1984 2565 2268 
Q 2250 2553 1709 2553 
Q 1456 2553 1204 2497 
Q 953 2441 691 2322 
L 691 4666 
z
" transform="scale(0.015625)"/>
       </defs>
       <use xlink:href="#DejaVuSans-35"/>
       <use xlink:href="#DejaVuSans-30" x="63.623047"/>
       <use xlink:href="#DejaVuSans-30" x="127.246094"/>
       <use xlink:href="#DejaVuSans-30" x="190.869141"/>
      </g>
     </g>
    </g>
    <g id="xtick_3">
     <g id="line2d_3">
      <g>
       <use xlink:href="#m2dc5f3db20" x="154.978106" y="162.432" style="stroke: #000000; stroke-width: 0.8"/>
      </g>
     </g>
     <g id="text_3">
      <!-- 10000 -->
      <g transform="translate(139.071856 177.030437)scale(0.1 -0.1)">
       <defs>
        <path id="DejaVuSans-31" d="M 794 531 
L 1825 531 
L 1825 4091 
L 703 3866 
L 703 4441 
L 1819 4666 
L 2450 4666 
L 2450 531 
L 3481 531 
L 3481 0 
L 794 0 
L 794 531 
z
" transform="scale(0.015625)"/>
       </defs>
       <use xlink:href="#DejaVuSans-31"/>
       <use xlink:href="#DejaVuSans-30" x="63.623047"/>
       <use xlink:href="#DejaVuSans-30" x="127.246094"/>
       <use xlink:href="#DejaVuSans-30" x="190.869141"/>
       <use xlink:href="#DejaVuSans-30" x="254.492188"/>
      </g>
     </g>
    </g>
    <g id="xtick_4">
     <g id="line2d_4">
      <g>
       <use xlink:href="#m2dc5f3db20" x="195.550795" y="162.432" style="stroke: #000000; stroke-width: 0.8"/>
      </g>
     </g>
     <g id="text_4">
      <!-- 15000 -->
      <g transform="translate(179.644545 177.030437)scale(0.1 -0.1)">
       <use xlink:href="#DejaVuSans-31"/>
       <use xlink:href="#DejaVuSans-35" x="63.623047"/>
       <use xlink:href="#DejaVuSans-30" x="127.246094"/>
       <use xlink:href="#DejaVuSans-30" x="190.869141"/>
       <use xlink:href="#DejaVuSans-30" x="254.492188"/>
      </g>
     </g>
    </g>
    <g id="xtick_5">
     <g id="line2d_5">
      <g>
       <use xlink:href="#m2dc5f3db20" x="236.123485" y="162.432" style="stroke: #000000; stroke-width: 0.8"/>
      </g>
     </g>
     <g id="text_5">
      <!-- 20000 -->
      <g transform="translate(220.217235 177.030437)scale(0.1 -0.1)">
       <defs>
        <path id="DejaVuSans-32" d="M 1228 531 
L 3431 531 
L 3431 0 
L 469 0 
L 469 531 
Q 828 903 1448 1529 
Q 2069 2156 2228 2338 
Q 2531 2678 2651 2914 
Q 2772 3150 2772 3378 
Q 2772 3750 2511 3984 
Q 2250 4219 1831 4219 
Q 1534 4219 1204 4116 
Q 875 4013 500 3803 
L 500 4441 
Q 881 4594 1212 4672 
Q 1544 4750 1819 4750 
Q 2544 4750 2975 4387 
Q 3406 4025 3406 3419 
Q 3406 3131 3298 2873 
Q 3191 2616 2906 2266 
Q 2828 2175 2409 1742 
Q 1991 1309 1228 531 
z
" transform="scale(0.015625)"/>
       </defs>
       <use xlink:href="#DejaVuSans-32"/>
       <use xlink:href="#DejaVuSans-30" x="63.623047"/>
       <use xlink:href="#DejaVuSans-30" x="127.246094"/>
       <use xlink:href="#DejaVuSans-30" x="190.869141"/>
       <use xlink:href="#DejaVuSans-30" x="254.492188"/>
      </g>
     </g>
    </g>
    <g id="xtick_6">
     <g id="line2d_6">
      <g>
       <use xlink:href="#m2dc5f3db20" x="276.696174" y="162.432" style="stroke: #000000; stroke-width: 0.8"/>
      </g>
     </g>
     <g id="text_6">
      <!-- 25000 -->
      <g transform="translate(260.789924 177.030437)scale(0.1 -0.1)">
       <use xlink:href="#DejaVuSans-32"/>
       <use xlink:href="#DejaVuSans-35" x="63.623047"/>
       <use xlink:href="#DejaVuSans-30" x="127.246094"/>
       <use xlink:href="#DejaVuSans-30" x="190.869141"/>
       <use xlink:href="#DejaVuSans-30" x="254.492188"/>
      </g>
     </g>
    </g>
    <g id="xtick_7">
     <g id="line2d_7">
      <g>
       <use xlink:href="#m2dc5f3db20" x="317.268863" y="162.432" style="stroke: #000000; stroke-width: 0.8"/>
      </g>
     </g>
     <g id="text_7">
      <!-- 30000 -->
      <g transform="translate(301.362613 177.030437)scale(0.1 -0.1)">
       <defs>
        <path id="DejaVuSans-33" d="M 2597 2516 
Q 3050 2419 3304 2112 
Q 3559 1806 3559 1356 
Q 3559 666 3084 287 
Q 2609 -91 1734 -91 
Q 1441 -91 1130 -33 
Q 819 25 488 141 
L 488 750 
Q 750 597 1062 519 
Q 1375 441 1716 441 
Q 2309 441 2620 675 
Q 2931 909 2931 1356 
Q 2931 1769 2642 2001 
Q 2353 2234 1838 2234 
L 1294 2234 
L 1294 2753 
L 1863 2753 
Q 2328 2753 2575 2939 
Q 2822 3125 2822 3475 
Q 2822 3834 2567 4026 
Q 2313 4219 1838 4219 
Q 1578 4219 1281 4162 
Q 984 4106 628 3988 
L 628 4550 
Q 988 4650 1302 4700 
Q 1616 4750 1894 4750 
Q 2613 4750 3031 4423 
Q 3450 4097 3450 3541 
Q 3450 3153 3228 2886 
Q 3006 2619 2597 2516 
z
" transform="scale(0.015625)"/>
       </defs>
       <use xlink:href="#DejaVuSans-33"/>
       <use xlink:href="#DejaVuSans-30" x="63.623047"/>
       <use xlink:href="#DejaVuSans-30" x="127.246094"/>
       <use xlink:href="#DejaVuSans-30" x="190.869141"/>
       <use xlink:href="#DejaVuSans-30" x="254.492188"/>
      </g>
     </g>
    </g>
    <g id="xtick_8">
     <g id="line2d_8">
      <g>
       <use xlink:href="#m2dc5f3db20" x="357.841553" y="162.432" style="stroke: #000000; stroke-width: 0.8"/>
      </g>
     </g>
     <g id="text_8">
      <!-- 35000 -->
      <g transform="translate(341.935303 177.030437)scale(0.1 -0.1)">
       <use xlink:href="#DejaVuSans-33"/>
       <use xlink:href="#DejaVuSans-35" x="63.623047"/>
       <use xlink:href="#DejaVuSans-30" x="127.246094"/>
       <use xlink:href="#DejaVuSans-30" x="190.869141"/>
       <use xlink:href="#DejaVuSans-30" x="254.492188"/>
      </g>
     </g>
    </g>
    <g id="xtick_9">
     <g id="line2d_9">
      <g>
       <use xlink:href="#m2dc5f3db20" x="398.414242" y="162.432" style="stroke: #000000; stroke-width: 0.8"/>
      </g>
     </g>
     <g id="text_9">
      <!-- 40000 -->
      <g transform="translate(382.507992 177.030437)scale(0.1 -0.1)">
       <defs>
        <path id="DejaVuSans-34" d="M 2419 4116 
L 825 1625 
L 2419 1625 
L 2419 4116 
z
M 2253 4666 
L 3047 4666 
L 3047 1625 
L 3713 1625 
L 3713 1100 
L 3047 1100 
L 3047 0 
L 2419 0 
L 2419 1100 
L 313 1100 
L 313 1709 
L 2253 4666 
z
" transform="scale(0.015625)"/>
       </defs>
       <use xlink:href="#DejaVuSans-34"/>
       <use xlink:href="#DejaVuSans-30" x="63.623047"/>
       <use xlink:href="#DejaVuSans-30" x="127.246094"/>
       <use xlink:href="#DejaVuSans-30" x="190.869141"/>
       <use xlink:href="#DejaVuSans-30" x="254.492188"/>
      </g>
     </g>
    </g>
   </g>
   <g id="matplotlib.axis_2">
    <g id="ytick_1">
     <g id="line2d_10">
      <defs>
       <path id="m9fc50ddc3d" d="M 0 0 
L -3.5 0 
" style="stroke: #000000; stroke-width: 0.8"/>
      </defs>
      <g>
       <use xlink:href="#m9fc50ddc3d" x="57.6" y="142.076816" style="stroke: #000000; stroke-width: 0.8"/>
      </g>
     </g>
     <g id="text_10">
      <!-- −60 -->
      <g transform="translate(29.495313 145.876035)scale(0.1 -0.1)">
       <defs>
        <path id="DejaVuSans-2212" d="M 678 2272 
L 4684 2272 
L 4684 1741 
L 678 1741 
L 678 2272 
z
" transform="scale(0.015625)"/>
        <path id="DejaVuSans-36" d="M 2113 2584 
Q 1688 2584 1439 2293 
Q 1191 2003 1191 1497 
Q 1191 994 1439 701 
Q 1688 409 2113 409 
Q 2538 409 2786 701 
Q 3034 994 3034 1497 
Q 3034 2003 2786 2293 
Q 2538 2584 2113 2584 
z
M 3366 4563 
L 3366 3988 
Q 3128 4100 2886 4159 
Q 2644 4219 2406 4219 
Q 1781 4219 1451 3797 
Q 1122 3375 1075 2522 
Q 1259 2794 1537 2939 
Q 1816 3084 2150 3084 
Q 2853 3084 3261 2657 
Q 3669 2231 3669 1497 
Q 3669 778 3244 343 
Q 2819 -91 2113 -91 
Q 1303 -91 875 529 
Q 447 1150 447 2328 
Q 447 3434 972 4092 
Q 1497 4750 2381 4750 
Q 2619 4750 2861 4703 
Q 3103 4656 3366 4563 
z
" transform="scale(0.015625)"/>
       </defs>
       <use xlink:href="#DejaVuSans-2212"/>
       <use xlink:href="#DejaVuSans-36" x="83.789062"/>
       <use xlink:href="#DejaVuSans-30" x="147.412109"/>
      </g>
     </g>
    </g>
    <g id="ytick_2">
     <g id="line2d_11">
      <g>
       <use xlink:href="#m9fc50ddc3d" x="57.6" y="120.678393" style="stroke: #000000; stroke-width: 0.8"/>
      </g>
     </g>
     <g id="text_11">
      <!-- −40 -->
      <g transform="translate(29.495313 124.477612)scale(0.1 -0.1)">
       <use xlink:href="#DejaVuSans-2212"/>
       <use xlink:href="#DejaVuSans-34" x="83.789062"/>
       <use xlink:href="#DejaVuSans-30" x="147.412109"/>
      </g>
     </g>
    </g>
    <g id="ytick_3">
     <g id="line2d_12">
      <g>
       <use xlink:href="#m9fc50ddc3d" x="57.6" y="99.27997" style="stroke: #000000; stroke-width: 0.8"/>
      </g>
     </g>
     <g id="text_12">
      <!-- −20 -->
      <g transform="translate(29.495313 103.079189)scale(0.1 -0.1)">
       <use xlink:href="#DejaVuSans-2212"/>
       <use xlink:href="#DejaVuSans-32" x="83.789062"/>
       <use xlink:href="#DejaVuSans-30" x="147.412109"/>
      </g>
     </g>
    </g>
    <g id="ytick_4">
     <g id="line2d_13">
      <g>
       <use xlink:href="#m9fc50ddc3d" x="57.6" y="77.881547" style="stroke: #000000; stroke-width: 0.8"/>
      </g>
     </g>
     <g id="text_13">
      <!-- 0 -->
      <g transform="translate(44.2375 81.680766)scale(0.1 -0.1)">
       <use xlink:href="#DejaVuSans-30"/>
      </g>
     </g>
    </g>
    <g id="ytick_5">
     <g id="line2d_14">
      <g>
       <use xlink:href="#m9fc50ddc3d" x="57.6" y="56.483124" style="stroke: #000000; stroke-width: 0.8"/>
      </g>
     </g>
     <g id="text_14">
      <!-- 20 -->
      <g transform="translate(37.875 60.282342)scale(0.1 -0.1)">
       <use xlink:href="#DejaVuSans-32"/>
       <use xlink:href="#DejaVuSans-30" x="63.623047"/>
      </g>
     </g>
    </g>
   </g>
   <g id="line2d_15">
    <path d="M 73.832727 156.933818 
L 73.978789 156.701545 
L 78.904313 145.845975 
L 79.447987 144.018732 
L 79.788798 142.056717 
L 80.016005 139.375541 
L 80.178296 134.518109 
L 80.291899 122.763596 
L 80.356816 90.657218 
L 80.373045 63.847658 
L 80.421732 150.248975 
L 80.63271 156.521487 
L 80.746314 156.82039 
L 80.786886 156.798176 
L 80.973521 156.452371 
L 83.919098 150.008306 
L 85.663723 146.189883 
L 86.256085 144.345898 
L 86.621239 142.471703 
L 86.864675 140.014918 
L 87.03508 135.909314 
L 87.156798 126.750356 
L 87.237944 97.38379 
L 87.262287 60.289614 
L 87.294746 149.177095 
L 87.513838 156.470008 
L 87.635556 156.826855 
L 87.668014 156.811832 
L 87.83842 156.513237 
L 91.595451 148.38811 
L 92.699028 145.803796 
L 93.234587 143.988009 
L 93.567283 142.064816 
L 93.79449 139.393542 
L 93.956781 134.56942 
L 94.070385 122.974105 
L 94.135301 91.786724 
L 94.15153 66.188683 
L 94.200217 150.247024 
L 94.411195 156.516853 
L 94.524799 156.816035 
L 94.565372 156.793899 
L 94.752006 156.448299 
L 97.697583 150.004931 
L 99.442209 146.185584 
L 100.03457 144.339422 
L 100.399724 142.460103 
L 100.64316 139.990119 
L 100.813566 135.843729 
L 100.935284 126.509435 
L 101.008315 102.553405 
L 101.040773 55.846545 
L 101.057002 148.026446 
L 101.284209 156.412391 
L 101.414041 156.834683 
L 101.438385 156.825598 
L 101.592561 156.574013 
L 106.623575 145.389271 
L 107.102333 143.5902 
L 107.410685 141.524952 
L 107.621663 138.480879 
L 107.767725 132.855769 
L 107.865099 119.869447 
L 107.930015 72.39853 
L 107.93813 52.806315 
L 108.003046 151.245393 
L 108.20591 156.593536 
L 108.319513 156.838511 
L 108.351971 156.817329 
L 108.54672 156.452073 
L 111.313778 150.371933 
L 113.245038 146.166837 
L 113.837399 144.311092 
L 114.202553 142.409093 
L 114.445989 139.880104 
L 114.616395 135.54818 
L 114.738113 125.386083 
L 114.811143 96.731741 
L 114.835487 58.394445 
L 114.867945 149.17804 
L 115.087038 156.473608 
L 115.208756 156.830226 
L 115.241214 156.815153 
L 115.411619 156.516403 
L 119.152421 148.425019 
L 120.272227 145.807349 
L 120.807787 143.993555 
L 121.140483 142.075022 
L 121.36769 139.416167 
L 121.529981 134.633617 
L 121.643584 123.234755 
L 121.708501 93.153114 
L 121.732844 47.490562 
L 121.773417 149.732985 
L 121.984395 156.493394 
L 122.106113 156.848752 
L 122.138571 156.833407 
L 122.308976 156.5338 
L 125.984862 148.576098 
L 127.153356 145.871611 
L 127.69703 144.05857 
L 128.03784 142.130498 
L 128.273162 139.396769 
L 128.435453 134.578597 
L 128.549056 123.011548 
L 128.613972 91.985173 
L 128.630201 66.596605 
L 128.678889 150.24668 
L 128.889867 156.516037 
L 129.00347 156.815268 
L 129.044043 156.793145 
L 129.230677 156.447581 
L 132.176255 150.004336 
L 133.92088 146.184826 
L 134.513241 144.338279 
L 134.878396 142.458054 
L 135.121832 139.985729 
L 135.292237 135.832082 
L 135.413955 126.466342 
L 135.486986 102.343522 
L 135.519444 55.01973 
L 135.535673 148.026583 
L 135.76288 156.413922 
L 135.892713 156.836112 
L 135.917056 156.82701 
L 136.071233 156.575361 
L 141.110361 145.366315 
L 141.589118 143.552861 
L 141.897471 141.452111 
L 142.108449 138.307141 
L 142.254511 132.329189 
L 142.351885 117.692903 
L 142.408687 73.436321 
L 142.416801 54.401364 
L 142.481718 151.243769 
L 142.684581 156.590652 
L 142.798185 156.8358 
L 142.830643 156.814658 
L 143.017277 156.468066 
L 145.938511 150.07108 
L 147.715595 146.185316 
L 148.307956 144.339018 
L 148.67311 142.45938 
L 148.916546 139.98857 
L 149.086951 135.839621 
L 149.20867 126.494245 
L 149.2817 102.479538 
L 149.314158 55.556242 
L 149.330388 148.026494 
L 149.557595 156.412929 
L 149.687427 156.835186 
L 149.711771 156.826095 
L 149.865947 156.574487 
L 154.896961 145.389847 
L 155.375718 143.591133 
L 155.684071 141.526762 
L 155.895049 138.485154 
L 156.04111 132.868486 
L 156.138485 119.919911 
L 156.203401 72.766733 
L 156.211516 53.373152 
L 156.276432 151.244818 
L 156.479295 156.592515 
L 156.592899 156.837551 
L 156.625357 156.816383 
L 156.820106 156.451173 
L 159.595278 150.354579 
L 161.510309 146.18705 
L 162.10267 144.341632 
L 162.467824 142.464064 
L 162.711261 139.998596 
L 162.881666 135.866192 
L 163.003384 126.592285 
L 163.076415 102.954077 
L 163.108873 57.408252 
L 163.125102 148.026184 
L 163.352309 156.409474 
L 163.482142 156.831961 
L 163.506485 156.822906 
L 163.660661 156.571445 
L 168.691675 145.386151 
L 169.170433 143.585139 
L 169.478785 141.515128 
L 169.689763 138.457644 
L 169.835825 132.786456 
L 169.933199 119.592718 
L 169.998116 70.343318 
L 170.00623 49.623753 
L 170.071146 151.248582 
L 170.27401 156.599195 
L 170.387613 156.84383 
L 170.420071 156.822573 
L 170.61482 156.45706 
L 173.381878 150.376073 
L 175.313138 146.17212 
L 175.905499 144.31909 
L 176.270653 142.423537 
L 176.514089 139.911418 
L 176.684495 135.633076 
L 176.806213 125.71523 
L 176.879244 98.515867 
L 176.903587 63.515475 
L 176.936045 149.175456 
L 177.155138 156.463758 
L 177.276856 156.821002 
L 177.309314 156.806065 
L 177.479719 156.507741 
L 181.25298 148.349154 
L 182.348442 145.774967 
L 182.884002 143.942814 
L 183.216698 141.981014 
L 183.443905 139.205346 
L 183.606196 134.022331 
L 183.711685 122.507047 
L 183.776601 89.248338 
L 183.79283 60.881308 
L 183.841517 150.251396 
L 184.052495 156.527234 
L 184.166099 156.825792 
L 184.206671 156.80348 
L 184.393306 156.457422 
L 187.330768 150.029082 
L 189.083509 146.19521 
L 189.683984 144.32204 
L 190.049139 142.428857 
L 190.292575 139.922917 
L 190.46298 135.664097 
L 190.584698 125.83418 
L 190.657729 99.144118 
L 190.682073 65.270968 
L 190.714531 149.174546 
L 190.933623 156.460288 
L 191.055341 156.817752 
L 191.087799 156.802864 
L 191.258205 156.504691 
L 195.047694 148.312218 
L 196.126927 145.77152 
L 196.654372 143.972986 
L 196.987068 142.037087 
L 197.214276 139.331747 
L 197.376566 134.392388 
L 197.482055 123.898077 
L 197.555086 87.739894 
L 197.571315 57.647664 
L 197.620002 150.253973 
L 197.83098 156.533351 
L 197.944584 156.831541 
L 197.985157 156.809125 
L 198.171791 156.462798 
L 201.101139 150.050125 
L 202.861994 146.200873 
L 203.46247 144.330625 
L 203.827624 142.444311 
L 204.07106 139.956228 
L 204.241465 135.753489 
L 204.363183 126.173072 
L 204.436214 100.887794 
L 204.468672 49.11504 
L 204.493016 148.61366 
L 204.712109 156.424601 
L 204.841941 156.846079 
L 204.866285 156.836865 
L 205.020461 156.584764 
L 210.067703 145.353112 
L 210.538347 143.571532 
L 210.846699 141.488637 
L 211.057677 138.394684 
L 211.203739 132.596929 
L 211.301113 118.821196 
L 211.36603 64.274006 
L 211.479633 153.601659 
L 211.666267 156.718775 
L 211.747413 156.818297 
L 211.7961 156.779447 
L 212.031422 156.301161 
L 214.238576 151.391551 
L 216.770312 145.885839 
L 217.3221 144.046078 
L 217.662911 142.107459 
L 217.898233 139.344397 
L 218.060523 134.428833 
L 218.174127 122.392647 
L 218.239043 88.60835 
L 218.255272 59.516696 
L 218.303959 150.252491 
L 218.514937 156.529834 
L 218.628541 156.828235 
L 218.669114 156.805879 
L 218.855748 156.459707 
L 221.793211 150.030975 
L 223.545951 146.197617 
L 224.146427 144.325691 
L 224.511581 142.435434 
L 224.755017 139.937113 
L 224.925422 135.702278 
L 225.04714 125.979627 
L 225.120171 99.900744 
L 225.144515 67.352882 
L 225.176973 149.17345 
L 225.396066 156.456108 
L 225.517784 156.813837 
L 225.550242 156.799006 
L 225.720647 156.501015 
L 229.526365 148.274683 
L 230.597484 145.744582 
L 231.124929 143.930834 
L 231.457625 141.958607 
L 231.684832 139.154287 
L 231.839009 134.314535 
L 231.944498 123.612228 
L 232.017528 85.818862 
L 232.033757 53.441959 
L 232.082445 150.257236 
L 232.293423 156.541091 
L 232.407026 156.838815 
L 232.447599 156.816268 
L 232.642348 156.451064 
L 235.41752 150.354488 
L 237.332551 146.186935 
L 237.924912 144.341458 
L 238.290066 142.463752 
L 238.533502 139.997929 
L 238.703908 135.864424 
L 238.825626 126.585777 
L 238.898657 102.922739 
L 238.931115 57.28689 
L 238.947344 148.026204 
L 239.174551 156.409702 
L 239.304383 156.832174 
L 239.328727 156.823116 
L 239.482903 156.571646 
L 244.513917 145.386395 
L 244.992674 143.585535 
L 245.301027 141.515897 
L 245.512005 138.459464 
L 245.658067 132.791898 
L 245.755441 119.614546 
L 245.820357 70.507685 
L 245.828472 49.879442 
L 245.893388 151.248328 
L 246.096252 156.598745 
L 246.209855 156.843407 
L 246.242313 156.822156 
L 246.437062 156.456663 
L 249.20412 150.375744 
L 251.13538 146.1717 
L 251.727741 144.318454 
L 252.092895 142.422391 
L 252.336331 139.908937 
L 252.506737 135.626373 
L 252.628455 125.689436 
L 252.701485 98.378492 
L 252.725829 63.128336 
L 252.758287 149.175654 
L 252.97738 156.464516 
L 253.099098 156.821712 
L 253.131556 156.806765 
L 253.301961 156.508408 
L 257.075221 148.349723 
L 258.170684 145.77572 
L 258.706243 143.943999 
L 259.03894 141.983226 
L 259.266147 139.210371 
L 259.428437 134.03725 
L 259.533926 122.564741 
L 259.598843 89.568324 
L 259.615072 61.559568 
L 259.663759 150.250847 
L 259.874737 156.525932 
L 259.98834 156.824568 
L 260.028913 156.802278 
L 260.215548 156.456278 
L 263.15301 150.028133 
L 264.90575 146.194003 
L 265.506226 144.320209 
L 265.87138 142.425556 
L 266.114817 139.915784 
L 266.285222 135.644863 
L 266.40694 125.760512 
L 266.479971 98.756041 
L 266.504314 64.189478 
L 266.536772 149.175108 
L 266.755865 156.462431 
L 266.877583 156.81976 
L 266.910041 156.804841 
L 267.080447 156.506575 
L 270.861821 148.331 
L 271.949169 145.77365 
L 272.476614 143.976305 
L 272.80931 142.043223 
L 273.036517 139.345463 
L 273.198808 134.431898 
L 273.312412 122.405486 
L 273.377328 88.680539 
L 273.393557 59.671161 
L 273.442244 150.252368 
L 273.653222 156.529541 
L 273.766826 156.82796 
L 273.807398 156.805609 
L 273.994033 156.459449 
L 276.931496 150.030761 
L 278.684236 146.197346 
L 279.284711 144.32528 
L 279.649866 142.434694 
L 279.893302 139.935516 
L 280.063707 135.69799 
L 280.185425 125.963345 
L 280.258456 99.816671 
L 280.2828 67.123276 
L 280.315258 149.173572 
L 280.53435 156.456572 
L 280.656068 156.814273 
L 280.688527 156.799435 
L 280.858932 156.501423 
L 284.66465 148.275033 
L 285.735769 145.745046 
L 286.263214 143.931562 
L 286.59591 141.959973 
L 286.823117 139.157408 
L 286.985408 133.879125 
L 287.090897 121.946068 
L 287.155813 86.038251 
L 287.172042 53.927278 
L 287.22073 150.256865 
L 287.431708 156.540209 
L 287.545311 156.837987 
L 287.585884 156.815455 
L 287.780633 156.45029 
L 290.555805 150.353846 
L 292.470836 146.186117 
L 293.063197 144.340226 
L 293.428351 142.461545 
L 293.671787 139.993205 
L 293.842192 135.851913 
L 293.96391 126.539661 
L 294.036941 102.700013 
L 294.069399 56.420515 
L 294.085629 148.02635 
L 294.312836 156.411323 
L 294.442668 156.833686 
L 294.467012 156.824612 
L 294.621188 156.573073 
L 299.652202 145.388128 
L 300.130959 143.588348 
L 300.439312 141.521358 
L 300.65029 138.472386 
L 300.796351 132.830472 
L 300.893726 119.768781 
L 300.958642 71.658023 
L 300.966757 51.663256 
L 301.031673 151.246546 
L 301.234536 156.595583 
L 301.34814 156.840434 
L 301.380598 156.819226 
L 301.575347 156.453876 
L 304.342404 150.37343 
L 306.273664 146.168748 
L 306.866026 144.313987 
L 307.23118 142.414325 
L 307.474616 139.891461 
L 307.645021 135.579043 
L 307.766739 125.506359 
L 307.83977 97.391605 
L 307.864114 60.312164 
L 307.896572 149.177084 
L 308.115665 156.469965 
L 308.237383 156.826814 
L 308.269841 156.811792 
L 308.440246 156.513199 
L 312.197277 148.388078 
L 313.300854 145.803753 
L 313.836414 143.987942 
L 314.16911 142.064694 
L 314.396317 139.39327 
L 314.558608 134.568647 
L 314.672211 122.970945 
L 314.737127 91.76994 
L 314.753356 66.154136 
L 314.802044 150.247053 
L 315.013022 156.516922 
L 315.126625 156.8161 
L 315.167198 156.793963 
L 315.353832 156.44836 
L 318.29941 150.004981 
L 320.044035 146.185648 
L 320.636396 144.339518 
L 321.001551 142.460276 
L 321.244987 139.990489 
L 321.415392 135.844712 
L 321.53711 126.513069 
L 321.610141 102.571057 
L 321.642599 55.91581 
L 321.658828 148.026434 
L 321.886035 156.412262 
L 322.015868 156.834563 
L 322.040211 156.825479 
L 322.194388 156.5739 
L 327.225401 145.389133 
L 327.704159 143.589977 
L 328.012511 141.524519 
L 328.223489 138.479857 
L 328.369551 132.852727 
L 328.466925 119.857362 
L 328.531842 72.310056 
L 328.539956 52.66996 
L 328.604873 151.245531 
L 328.807736 156.593781 
L 328.92134 156.838741 
L 328.953798 156.817556 
L 329.148547 156.452289 
L 331.915604 150.372112 
L 333.846864 146.167066 
L 334.439225 144.311439 
L 334.80438 142.40972 
L 335.047816 139.881466 
L 335.218221 135.551884 
L 335.339939 125.400556 
L 335.41297 96.811631 
L 335.437314 58.628122 
L 335.469772 149.177924 
L 335.688864 156.473167 
L 335.810582 156.829813 
L 335.84304 156.814746 
L 336.013446 156.516015 
L 339.754248 148.424689 
L 340.874054 145.806914 
L 341.409613 143.992876 
L 341.742309 142.073773 
L 341.969516 139.413402 
L 342.131807 134.62579 
L 342.245411 123.203137 
L 342.310327 92.989224 
L 342.334671 46.970182 
L 342.375243 149.733297 
L 342.586221 156.494302 
L 342.707939 156.849602 
L 342.740398 156.834244 
L 342.910803 156.534598 
L 346.586689 148.576772 
L 347.755182 145.872496 
L 348.298856 144.05994 
L 348.639667 142.13302 
L 348.874988 139.402481 
L 349.037279 134.594822 
L 349.150883 123.077601 
L 349.215799 92.333477 
L 349.232028 67.310133 
L 349.280715 150.246076 
L 349.491693 156.514602 
L 349.605297 156.813919 
L 349.645869 156.79182 
L 349.832504 156.44632 
L 352.786195 149.9867 
L 354.514592 146.204601 
L 355.115068 144.33627 
L 355.480222 142.454449 
L 355.723658 139.978002 
L 355.894063 135.811549 
L 356.015782 126.390138 
L 356.088812 101.969884 
L 356.121271 53.532741 
L 356.1375 148.026828 
L 356.364707 156.416652 
L 356.494539 156.838661 
L 356.518883 156.82953 
L 356.673059 156.577765 
L 361.712187 145.369248 
L 362.190945 143.557646 
L 362.499297 141.461491 
L 362.710275 138.329706 
L 362.856337 132.398676 
L 362.953711 117.990165 
L 363.010513 75.22146 
L 363.018628 57.126217 
L 363.083544 151.240951 
L 363.286407 156.58565 
L 363.400011 156.831099 
L 363.432469 156.810023 
L 363.619104 156.463652 
L 366.548452 150.050834 
L 368.309306 146.201773 
L 368.909782 144.331988 
L 369.274936 142.44676 
L 369.518373 139.961495 
L 369.688778 135.767561 
L 369.810496 126.225899 
L 369.883527 101.153589 
L 369.915985 50.215723 
L 369.940329 148.613313 
L 370.159421 156.422643 
L 370.289254 156.844251 
L 370.313597 156.835058 
L 370.467773 156.58304 
L 375.515016 145.351002 
L 375.985659 143.568117 
L 376.294012 141.481971 
L 376.50499 138.378773 
L 376.651051 132.548633 
L 376.748426 118.621049 
L 376.813342 62.613048 
L 376.926946 153.604427 
L 377.11358 156.72195 
L 377.194725 156.821336 
L 377.243413 156.782424 
L 377.478734 156.303987 
L 379.685888 151.393949 
L 382.217624 145.889008 
L 382.769413 144.051013 
L 383.110223 142.116572 
L 383.345545 139.365153 
L 383.507836 134.4884 
L 383.621439 122.640819 
L 383.686356 89.987465 
L 383.702585 62.443959 
L 383.751272 150.250128 
L 383.96225 156.524223 
L 384.075853 156.822962 
L 384.116426 156.800701 
L 384.303061 156.454776 
L 387.240523 150.026889 
L 388.993263 146.19242 
L 389.593739 144.317805 
L 389.958893 142.42122 
L 390.20233 139.906403 
L 390.372735 135.619522 
L 390.494453 125.663037 
L 390.567484 98.237474 
L 390.591827 62.729699 
L 390.624286 149.175859 
L 390.843378 156.465295 
L 390.965096 156.822441 
L 390.997554 156.807483 
L 391.16796 156.509093 
L 394.94122 148.350307 
L 396.036682 145.776493 
L 396.572242 143.945215 
L 396.904938 141.985496 
L 397.132145 139.215522 
L 397.294436 134.052525 
L 397.399925 122.623667 
L 397.464841 89.893247 
L 397.48107 62.245556 
L 397.529757 150.250289 
L 397.740735 156.524608 
L 397.854339 156.823324 
L 397.894911 156.801056 
L 398.081546 156.455114 
L 398.487273 155.495424 
L 398.487273 155.495424 
" clip-path="url(#p46859136a9)" style="fill: none; stroke: #000000; stroke-width: 1.5; stroke-linecap: square"/>
   </g>
   <g id="patch_3">
    <path d="M 57.6 162.432 
L 57.6 41.472 
" style="fill: none; stroke: #000000; stroke-width: 0.8; stroke-linejoin: miter; stroke-linecap: square"/>
   </g>
   <g id="patch_4">
    <path d="M 414.72 162.432 
L 414.72 41.472 
" style="fill: none; stroke: #000000; stroke-width: 0.8; stroke-linejoin: miter; stroke-linecap: square"/>
   </g>
   <g id="patch_5">
    <path d="M 57.6 162.432 
L 414.72 162.432 
" style="fill: none; stroke: #000000; stroke-width: 0.8; stroke-linejoin: miter; stroke-linecap: square"/>
   </g>
   <g id="patch_6">
    <path d="M 57.6 41.472 
L 414.72 41.472 
" style="fill: none; stroke: #000000; stroke-width: 0.8; stroke-linejoin: miter; stroke-linecap: square"/>
   </g>
  </g>
  <g id="axes_2">
   <g id="patch_7">
    <path d="M 57.6 307.584 
L 414.72 307.584 
L 414.72 186.624 
L 57.6 186.624 
z
" style="fill: #ffffff"/>
   </g>
   <g id="matplotlib.axis_3">
    <g id="xtick_10">
     <g id="line2d_16">
      <g>
       <use xlink:href="#m2dc5f3db20" x="73.832727" y="307.584" style="stroke: #000000; stroke-width: 0.8"/>
      </g>
     </g>
     <g id="text_15">
      <!-- 0 -->
      <g transform="translate(70.651477 322.182437)scale(0.1 -0.1)">
       <use xlink:href="#DejaVuSans-30"/>
      </g>
     </g>
    </g>
    <g id="xtick_11">
     <g id="line2d_17">
      <g>
       <use xlink:href="#m2dc5f3db20" x="114.405417" y="307.584" style="stroke: #000000; stroke-width: 0.8"/>
      </g>
     </g>
     <g id="text_16">
      <!-- 5000 -->
      <g transform="translate(101.680417 322.182437)scale(0.1 -0.1)">
       <use xlink:href="#DejaVuSans-35"/>
       <use xlink:href="#DejaVuSans-30" x="63.623047"/>
       <use xlink:href="#DejaVuSans-30" x="127.246094"/>
       <use xlink:href="#DejaVuSans-30" x="190.869141"/>
      </g>
     </g>
    </g>
    <g id="xtick_12">
     <g id="line2d_18">
      <g>
       <use xlink:href="#m2dc5f3db20" x="154.978106" y="307.584" style="stroke: #000000; stroke-width: 0.8"/>
      </g>
     </g>
     <g id="text_17">
      <!-- 10000 -->
      <g transform="translate(139.071856 322.182437)scale(0.1 -0.1)">
       <use xlink:href="#DejaVuSans-31"/>
       <use xlink:href="#DejaVuSans-30" x="63.623047"/>
       <use xlink:href="#DejaVuSans-30" x="127.246094"/>
       <use xlink:href="#DejaVuSans-30" x="190.869141"/>
       <use xlink:href="#DejaVuSans-30" x="254.492188"/>
      </g>
     </g>
    </g>
    <g id="xtick_13">
     <g id="line2d_19">
      <g>
       <use xlink:href="#m2dc5f3db20" x="195.550795" y="307.584" style="stroke: #000000; stroke-width: 0.8"/>
      </g>
     </g>
     <g id="text_18">
      <!-- 15000 -->
      <g transform="translate(179.644545 322.182437)scale(0.1 -0.1)">
       <use xlink:href="#DejaVuSans-31"/>
       <use xlink:href="#DejaVuSans-35" x="63.623047"/>
       <use xlink:href="#DejaVuSans-30" x="127.246094"/>
       <use xlink:href="#DejaVuSans-30" x="190.869141"/>
       <use xlink:href="#DejaVuSans-30" x="254.492188"/>
      </g>
     </g>
    </g>
    <g id="xtick_14">
     <g id="line2d_20">
      <g>
       <use xlink:href="#m2dc5f3db20" x="236.123485" y="307.584" style="stroke: #000000; stroke-width: 0.8"/>
      </g>
     </g>
     <g id="text_19">
      <!-- 20000 -->
      <g transform="translate(220.217235 322.182437)scale(0.1 -0.1)">
       <use xlink:href="#DejaVuSans-32"/>
       <use xlink:href="#DejaVuSans-30" x="63.623047"/>
       <use xlink:href="#DejaVuSans-30" x="127.246094"/>
       <use xlink:href="#DejaVuSans-30" x="190.869141"/>
       <use xlink:href="#DejaVuSans-30" x="254.492188"/>
      </g>
     </g>
    </g>
    <g id="xtick_15">
     <g id="line2d_21">
      <g>
       <use xlink:href="#m2dc5f3db20" x="276.696174" y="307.584" style="stroke: #000000; stroke-width: 0.8"/>
      </g>
     </g>
     <g id="text_20">
      <!-- 25000 -->
      <g transform="translate(260.789924 322.182437)scale(0.1 -0.1)">
       <use xlink:href="#DejaVuSans-32"/>
       <use xlink:href="#DejaVuSans-35" x="63.623047"/>
       <use xlink:href="#DejaVuSans-30" x="127.246094"/>
       <use xlink:href="#DejaVuSans-30" x="190.869141"/>
       <use xlink:href="#DejaVuSans-30" x="254.492188"/>
      </g>
     </g>
    </g>
    <g id="xtick_16">
     <g id="line2d_22">
      <g>
       <use xlink:href="#m2dc5f3db20" x="317.268863" y="307.584" style="stroke: #000000; stroke-width: 0.8"/>
      </g>
     </g>
     <g id="text_21">
      <!-- 30000 -->
      <g transform="translate(301.362613 322.182437)scale(0.1 -0.1)">
       <use xlink:href="#DejaVuSans-33"/>
       <use xlink:href="#DejaVuSans-30" x="63.623047"/>
       <use xlink:href="#DejaVuSans-30" x="127.246094"/>
       <use xlink:href="#DejaVuSans-30" x="190.869141"/>
       <use xlink:href="#DejaVuSans-30" x="254.492188"/>
      </g>
     </g>
    </g>
    <g id="xtick_17">
     <g id="line2d_23">
      <g>
       <use xlink:href="#m2dc5f3db20" x="357.841553" y="307.584" style="stroke: #000000; stroke-width: 0.8"/>
      </g>
     </g>
     <g id="text_22">
      <!-- 35000 -->
      <g transform="translate(341.935303 322.182437)scale(0.1 -0.1)">
       <use xlink:href="#DejaVuSans-33"/>
       <use xlink:href="#DejaVuSans-35" x="63.623047"/>
       <use xlink:href="#DejaVuSans-30" x="127.246094"/>
       <use xlink:href="#DejaVuSans-30" x="190.869141"/>
       <use xlink:href="#DejaVuSans-30" x="254.492188"/>
      </g>
     </g>
    </g>
    <g id="xtick_18">
     <g id="line2d_24">
      <g>
       <use xlink:href="#m2dc5f3db20" x="398.414242" y="307.584" style="stroke: #000000; stroke-width: 0.8"/>
      </g>
     </g>
     <g id="text_23">
      <!-- 40000 -->
      <g transform="translate(382.507992 322.182437)scale(0.1 -0.1)">
       <use xlink:href="#DejaVuSans-34"/>
       <use xlink:href="#DejaVuSans-30" x="63.623047"/>
       <use xlink:href="#DejaVuSans-30" x="127.246094"/>
       <use xlink:href="#DejaVuSans-30" x="190.869141"/>
       <use xlink:href="#DejaVuSans-30" x="254.492188"/>
      </g>
     </g>
    </g>
   </g>
   <g id="matplotlib.axis_4">
    <g id="ytick_6">
     <g id="line2d_25">
      <g>
       <use xlink:href="#m9fc50ddc3d" x="57.6" y="273.529366" style="stroke: #000000; stroke-width: 0.8"/>
      </g>
     </g>
     <g id="text_24">
      <!-- −10 -->
      <g transform="translate(29.495313 277.328585)scale(0.1 -0.1)">
       <use xlink:href="#DejaVuSans-2212"/>
       <use xlink:href="#DejaVuSans-31" x="83.789062"/>
       <use xlink:href="#DejaVuSans-30" x="147.412109"/>
      </g>
     </g>
    </g>
    <g id="ytick_7">
     <g id="line2d_26">
      <g>
       <use xlink:href="#m9fc50ddc3d" x="57.6" y="238.299896" style="stroke: #000000; stroke-width: 0.8"/>
      </g>
     </g>
     <g id="text_25">
      <!-- −8 -->
      <g transform="translate(35.857813 242.099115)scale(0.1 -0.1)">
       <defs>
        <path id="DejaVuSans-38" d="M 2034 2216 
Q 1584 2216 1326 1975 
Q 1069 1734 1069 1313 
Q 1069 891 1326 650 
Q 1584 409 2034 409 
Q 2484 409 2743 651 
Q 3003 894 3003 1313 
Q 3003 1734 2745 1975 
Q 2488 2216 2034 2216 
z
M 1403 2484 
Q 997 2584 770 2862 
Q 544 3141 544 3541 
Q 544 4100 942 4425 
Q 1341 4750 2034 4750 
Q 2731 4750 3128 4425 
Q 3525 4100 3525 3541 
Q 3525 3141 3298 2862 
Q 3072 2584 2669 2484 
Q 3125 2378 3379 2068 
Q 3634 1759 3634 1313 
Q 3634 634 3220 271 
Q 2806 -91 2034 -91 
Q 1263 -91 848 271 
Q 434 634 434 1313 
Q 434 1759 690 2068 
Q 947 2378 1403 2484 
z
M 1172 3481 
Q 1172 3119 1398 2916 
Q 1625 2713 2034 2713 
Q 2441 2713 2670 2916 
Q 2900 3119 2900 3481 
Q 2900 3844 2670 4047 
Q 2441 4250 2034 4250 
Q 1625 4250 1398 4047 
Q 1172 3844 1172 3481 
z
" transform="scale(0.015625)"/>
       </defs>
       <use xlink:href="#DejaVuSans-2212"/>
       <use xlink:href="#DejaVuSans-38" x="83.789062"/>
      </g>
     </g>
    </g>
    <g id="ytick_8">
     <g id="line2d_27">
      <g>
       <use xlink:href="#m9fc50ddc3d" x="57.6" y="203.070426" style="stroke: #000000; stroke-width: 0.8"/>
      </g>
     </g>
     <g id="text_26">
      <!-- −6 -->
      <g transform="translate(35.857813 206.869645)scale(0.1 -0.1)">
       <use xlink:href="#DejaVuSans-2212"/>
       <use xlink:href="#DejaVuSans-36" x="83.789062"/>
      </g>
     </g>
    </g>
   </g>
   <g id="line2d_28">
    <path d="M 73.832727 205.137621 
L 74.733441 234.888856 
L 75.609811 256.830292 
L 76.461838 272.89809 
L 77.28952 284.526921 
L 78.068516 292.550661 
L 78.782595 297.79821 
L 79.391186 300.792849 
L 79.813142 301.94876 
L 80.02412 302.072511 
L 80.145838 301.86327 
L 80.27567 301.068378 
L 80.373045 298.768734 
L 80.381159 192.585132 
L 80.486648 196.291259 
L 81.695714 236.999461 
L 82.572085 258.424535 
L 83.424111 274.092325 
L 84.243679 285.313005 
L 85.022675 293.119006 
L 85.736754 298.191054 
L 86.329116 300.975421 
L 86.734842 301.996276 
L 86.921477 302.066062 
L 87.043195 301.83191 
L 87.173028 300.958902 
L 87.262287 298.689661 
L 87.270402 192.482786 
L 87.375891 196.19181 
L 88.584957 236.930801 
L 89.461327 258.372703 
L 90.313354 274.05353 
L 91.132922 285.284339 
L 91.911918 293.098324 
L 92.625997 298.176832 
L 93.218358 300.966746 
L 93.624085 301.993136 
L 93.818834 302.061583 
L 93.940552 301.811941 
L 94.06227 300.988109 
L 94.15153 298.822348 
L 94.159645 192.654055 
L 94.265134 196.35823 
L 95.4742 237.045697 
L 96.35057 258.459438 
L 97.202596 274.118447 
L 98.022165 285.332307 
L 98.80116 293.132929 
L 99.51524 298.200626 
L 100.107601 300.981251 
L 100.505213 301.987891 
L 100.699962 302.064808 
L 100.82168 301.826199 
L 100.951513 300.938754 
L 101.040773 298.594707 
L 101.048887 192.358762 
L 101.154376 196.071298 
L 102.363442 236.847596 
L 103.239812 258.309887 
L 104.091839 274.006511 
L 104.911407 285.249592 
L 105.690403 293.073251 
L 106.404482 298.159581 
L 106.996844 300.956208 
L 107.40257 301.989271 
L 107.597319 302.063991 
L 107.719037 301.822531 
L 107.840755 301.022406 
L 107.930015 298.971263 
L 107.93813 298.531977 
L 107.946244 192.276136 
L 108.051733 195.991011 
L 109.2608 236.792161 
L 110.13717 258.268035 
L 110.989196 273.975182 
L 111.808764 285.226438 
L 112.58776 293.056541 
L 113.301839 298.14808 
L 113.894201 300.949172 
L 114.299928 301.986661 
L 114.494677 302.065518 
L 114.616395 301.82942 
L 114.746227 300.950127 
L 114.835487 298.648664 
L 114.843602 192.42939 
L 114.949091 196.139927 
L 116.158157 236.89498 
L 117.034527 258.34566 
L 117.886553 274.033288 
L 118.706122 285.26938 
L 119.485117 293.087531 
L 120.199197 298.169407 
L 120.791558 300.962213 
L 121.197285 301.99148 
L 121.392034 302.062637 
L 121.513752 301.816537 
L 121.63547 301.003019 
L 121.72473 298.887962 
L 121.732844 298.42631 
L 121.740959 192.135674 
L 121.846448 195.854526 
L 123.047399 236.469553 
L 123.92377 258.024446 
L 124.775796 273.792813 
L 125.595364 285.091622 
L 126.37436 292.959198 
L 127.088439 298.081008 
L 127.688915 300.937181 
L 128.094642 301.982157 
L 128.289391 302.067975 
L 128.411109 301.840834 
L 128.540942 300.990243 
L 128.630201 298.831825 
L 128.638316 192.666199 
L 128.743805 196.370031 
L 129.952871 237.053844 
L 130.829241 258.465588 
L 131.681268 274.12305 
L 132.500836 285.335707 
L 133.279832 293.135382 
L 133.993911 298.202312 
L 134.586272 300.982278 
L 134.983885 301.988276 
L 135.178634 302.064583 
L 135.300352 301.825183 
L 135.42207 301.030963 
L 135.519444 298.577473 
L 135.527559 192.336118 
L 135.633048 196.049295 
L 136.842114 236.832403 
L 137.718484 258.298417 
L 138.57051 273.997925 
L 139.390079 285.243247 
L 140.169074 293.068672 
L 140.883154 298.15643 
L 141.475515 300.954281 
L 141.881242 301.988559 
L 142.075991 302.064416 
L 142.197709 301.824432 
L 142.319427 301.028542 
L 142.416801 298.56467 
L 142.424916 192.319268 
L 142.530405 196.032922 
L 143.739471 236.821099 
L 144.615841 258.289882 
L 145.467868 273.991536 
L 146.287436 285.238525 
L 147.066432 293.065264 
L 147.780511 298.154085 
L 148.372872 300.952847 
L 148.778599 301.988027 
L 148.973348 302.064729 
L 149.095066 301.825841 
L 149.224899 300.937488 
L 149.314158 298.588641 
L 149.322273 192.350796 
L 149.427762 196.063558 
L 150.636828 236.842252 
L 151.513198 258.305852 
L 152.365225 274.003491 
L 153.184793 285.24736 
L 153.963789 293.07164 
L 154.677868 298.158473 
L 155.270229 300.955531 
L 155.675956 301.989021 
L 155.870705 302.064141 
L 155.992423 301.823201 
L 156.114141 301.024569 
L 156.211516 298.543541 
L 156.21963 192.29141 
L 156.325119 196.005853 
L 157.534185 236.802408 
L 158.410555 258.275771 
L 159.262582 273.980973 
L 160.08215 285.230718 
L 160.861146 293.05963 
L 161.575225 298.150207 
L 162.167586 300.950474 
L 162.573313 301.987145 
L 162.768062 302.06524 
L 162.88978 301.828157 
L 163.019613 300.945669 
L 163.108873 298.627625 
L 163.116987 192.401899 
L 163.222476 196.113214 
L 164.431543 236.876536 
L 165.307913 258.331735 
L 166.159939 274.022865 
L 166.979507 285.261678 
L 167.758503 293.081973 
L 168.472582 298.165583 
L 169.064944 300.959877 
L 169.470671 301.990623 
L 169.665419 302.063169 
L 169.787138 301.818882 
L 169.908856 301.01061 
L 169.998116 298.920845 
L 170.00623 298.468124 
L 170.014345 192.191453 
L 170.119834 195.908726 
L 171.320785 236.507073 
L 172.197155 258.052778 
L 173.049182 273.814027 
L 173.86875 285.107307 
L 174.647746 292.970528 
L 175.361825 298.088821 
L 175.962301 300.941947 
L 176.368028 301.983955 
L 176.562777 302.06702 
L 176.684495 301.836346 
L 176.814327 300.974501 
L 176.903587 298.761231 
L 176.911702 192.575456 
L 177.017191 196.281857 
L 178.226257 236.99297 
L 179.102627 258.419635 
L 179.954653 274.088657 
L 180.774222 285.310296 
L 181.553217 293.117051 
L 182.267297 298.18971 
L 182.859658 300.974601 
L 183.265385 301.995981 
L 183.452019 302.066235 
L 183.573737 301.832705 
L 183.70357 300.961699 
L 183.79283 298.702617 
L 183.800944 192.499612 
L 183.906433 196.20816 
L 185.1155 236.94209 
L 185.99187 258.381225 
L 186.843896 274.059908 
L 187.663464 285.289052 
L 188.44246 293.101725 
L 189.156539 298.179171 
L 189.748901 300.968174 
L 190.154628 301.993655 
L 190.349376 302.061245 
L 190.471095 301.810481 
L 190.592813 300.983364 
L 190.682073 298.801175 
L 190.690187 192.626881 
L 190.795676 196.331825 
L 192.004742 237.027468 
L 192.881112 258.445677 
L 193.733139 274.108148 
L 194.552707 285.324697 
L 195.331703 293.12744 
L 196.045782 298.196853 
L 196.638143 300.978953 
L 197.035756 301.987029 
L 197.230505 302.065308 
L 197.352223 301.828462 
L 197.482055 300.946745 
L 197.571315 298.632715 
L 197.57943 192.408555 
L 197.684919 196.119681 
L 198.893985 236.881001 
L 199.770355 258.335107 
L 200.622381 274.025389 
L 201.44195 285.263543 
L 202.220945 293.083319 
L 202.935025 298.166509 
L 203.527386 300.960442 
L 203.933113 301.990831 
L 204.127862 302.063041 
L 204.24958 301.818316 
L 204.371298 301.008777 
L 204.460558 298.912938 
L 204.468672 298.458083 
L 204.476787 192.178081 
L 204.582276 195.895733 
L 205.783228 236.498078 
L 206.659598 258.045986 
L 207.511624 273.808941 
L 208.331192 285.103547 
L 209.110188 292.967812 
L 209.824267 298.086948 
L 210.424743 300.940805 
L 210.83047 301.983525 
L 211.025219 302.067252 
L 211.146937 301.837427 
L 211.27677 300.978297 
L 211.36603 298.778402 
L 211.374144 192.597588 
L 211.479633 196.303362 
L 212.688699 237.007817 
L 213.565069 258.430843 
L 214.417096 274.097046 
L 215.236664 285.316494 
L 216.01566 293.121522 
L 216.729739 298.192785 
L 217.3221 300.976475 
L 217.719713 301.986095 
L 217.914462 302.065839 
L 218.03618 301.830885 
L 218.166012 300.95529 
L 218.255272 298.67285 
L 218.263387 192.460918 
L 218.368876 196.170562 
L 219.577942 236.916131 
L 220.454312 258.361628 
L 221.306338 274.04524 
L 222.125907 285.278213 
L 222.904902 293.093904 
L 223.618982 298.173791 
L 224.211343 300.96489 
L 224.61707 301.992459 
L 224.811819 302.062018 
L 224.933537 301.81383 
L 225.055255 300.994242 
L 225.144515 298.849505 
L 225.152629 192.688824 
L 225.258118 196.392015 
L 226.467185 237.069021 
L 227.343555 258.477045 
L 228.195581 274.131625 
L 229.015149 285.342042 
L 229.794145 293.139951 
L 230.508224 298.205453 
L 231.100586 300.984189 
L 231.498198 301.98899 
L 231.692947 302.064159 
L 231.814665 301.823283 
L 231.936383 301.024832 
L 232.033757 298.544949 
L 232.041872 192.293268 
L 232.147361 196.007658 
L 233.356427 236.803655 
L 234.232797 258.276713 
L 235.084824 273.981678 
L 235.904392 285.231239 
L 236.683388 293.060006 
L 237.397467 298.150465 
L 237.989828 300.950632 
L 238.395555 301.987204 
L 238.590304 302.065206 
L 238.712022 301.828003 
L 238.841855 300.945125 
L 238.931115 298.62505 
L 238.939229 192.398529 
L 239.044718 196.109939 
L 240.253784 236.874275 
L 241.130154 258.330029 
L 241.982181 274.021588 
L 242.801749 285.260734 
L 243.580745 293.081292 
L 244.294824 298.165114 
L 244.887185 300.95959 
L 245.292912 301.990518 
L 245.487661 302.063234 
L 245.609379 301.819168 
L 245.731097 301.011536 
L 245.820357 298.924834 
L 245.828472 298.473188 
L 245.836586 192.19819 
L 245.942075 195.915273 
L 247.143027 236.511605 
L 248.019397 258.056201 
L 248.871424 273.816589 
L 249.690992 285.109202 
L 250.469988 292.971896 
L 251.184067 298.089764 
L 251.784543 300.942523 
L 252.19027 301.984172 
L 252.385018 302.066903 
L 252.506737 301.8358 
L 252.636569 300.972583 
L 252.725829 298.752519 
L 252.733944 192.564212 
L 252.839433 196.270931 
L 254.048499 236.985427 
L 254.924869 258.413941 
L 255.776895 274.084395 
L 256.596464 285.307146 
L 257.375459 293.114779 
L 258.089539 298.188148 
L 258.6819 300.973649 
L 259.087627 301.995638 
L 259.274261 302.066434 
L 259.395979 301.833626 
L 259.525812 300.96494 
L 259.615072 298.717562 
L 259.623186 192.518994 
L 259.728675 196.226993 
L 260.937741 236.955092 
L 261.814111 258.391041 
L 262.666138 274.067255 
L 263.485706 285.294481 
L 264.264702 293.105642 
L 264.978781 298.181865 
L 265.571142 300.969817 
L 265.976869 301.994252 
L 266.171618 302.060853 
L 266.293336 301.808792 
L 266.415054 300.977872 
L 266.504314 298.776482 
L 266.512429 192.595115 
L 266.617918 196.300959 
L 267.826984 237.006158 
L 268.703354 258.429591 
L 269.555381 274.096109 
L 270.374949 285.315801 
L 271.153945 293.121023 
L 271.868024 298.192441 
L 272.460385 300.976266 
L 272.857997 301.986016 
L 273.052746 302.065883 
L 273.174464 301.831089 
L 273.304297 300.956008 
L 273.393557 298.676199 
L 273.401672 192.465278 
L 273.507161 196.174798 
L 274.716227 236.919056 
L 275.592597 258.363836 
L 276.444623 274.046893 
L 277.264192 285.279434 
L 278.043187 293.094785 
L 278.757267 298.174398 
L 279.349628 300.96526 
L 279.755355 301.992594 
L 279.950104 302.061931 
L 280.071822 301.813454 
L 280.19354 300.993022 
L 280.2828 298.844122 
L 280.290914 192.68194 
L 280.396403 196.385326 
L 281.605469 237.064403 
L 282.481839 258.473559 
L 283.333866 274.129016 
L 284.153434 285.340115 
L 284.93243 293.138561 
L 285.646509 298.204497 
L 286.23887 300.983608 
L 286.636483 301.988773 
L 286.831232 302.064288 
L 286.95295 301.823862 
L 287.074668 301.026702 
L 287.172042 298.554903 
L 287.180157 192.306398 
L 287.285646 196.020417 
L 288.494712 236.812464 
L 289.371082 258.283364 
L 290.223109 273.986657 
L 291.042677 285.234919 
L 291.821672 293.062662 
L 292.535752 298.152293 
L 293.128113 300.951751 
L 293.53384 301.98762 
L 293.728589 302.064966 
L 293.850307 301.826912 
L 293.98014 300.941275 
L 294.069399 298.606749 
L 294.077514 192.37456 
L 294.183003 196.086649 
L 295.392069 236.858194 
L 296.268439 258.317889 
L 297.120466 274.0125 
L 297.940034 285.254018 
L 298.71903 293.076446 
L 299.433109 298.16178 
L 300.02547 300.957552 
L 300.431197 301.989767 
L 300.625946 302.063692 
L 300.747664 301.821199 
L 300.869382 301.018102 
L 300.958642 298.952962 
L 300.966757 298.508836 
L 300.974871 192.245513 
L 301.08036 195.961256 
L 302.281312 236.543436 
L 303.157682 258.080237 
L 304.009708 273.834586 
L 304.829277 285.122508 
L 305.608272 292.981506 
L 306.322352 298.09639 
L 306.914713 300.917449 
L 307.32044 301.974598 
L 307.523303 302.066069 
L 307.645021 301.83194 
L 307.774854 300.959008 
L 307.864114 298.690153 
L 307.872228 192.483425 
L 307.977717 196.192432 
L 309.186784 236.931231 
L 310.063154 258.373027 
L 310.91518 274.053772 
L 311.734748 285.284518 
L 312.513744 293.098453 
L 313.227823 298.176921 
L 313.820185 300.9668 
L 314.225912 301.993156 
L 314.42066 302.06157 
L 314.542379 301.811885 
L 314.664097 300.987929 
L 314.753356 298.821547 
L 314.761471 192.653028 
L 314.86696 196.357233 
L 316.076026 237.045008 
L 316.952396 258.458919 
L 317.804423 274.118058 
L 318.623991 285.332019 
L 319.402987 293.132721 
L 320.117066 298.200484 
L 320.709427 300.981164 
L 321.10704 301.987859 
L 321.301789 302.064827 
L 321.423507 301.826285 
L 321.553339 300.939057 
L 321.642599 298.596157 
L 321.650714 192.360665 
L 321.756203 196.073148 
L 322.965269 236.848872 
L 323.841639 258.310851 
L 324.693665 274.007232 
L 325.513234 285.250125 
L 326.292229 293.073636 
L 327.006309 298.159846 
L 327.59867 300.95637 
L 328.004397 301.989331 
L 328.199146 302.063955 
L 328.320864 301.822371 
L 328.442582 301.021888 
L 328.531842 298.969068 
L 328.539956 298.529204 
L 328.548071 192.27247 
L 328.65356 195.98745 
L 329.862626 236.789701 
L 330.738996 258.266178 
L 331.591023 273.973792 
L 332.410591 285.22541 
L 333.189587 293.055799 
L 333.903666 298.14757 
L 334.496027 300.94886 
L 334.901754 301.986544 
L 335.096503 302.065584 
L 335.218221 301.829723 
L 335.348054 300.951194 
L 335.437314 298.653679 
L 335.445428 192.435934 
L 335.550917 196.146285 
L 336.759983 236.899369 
L 337.636353 258.348974 
L 338.48838 274.035768 
L 339.307948 285.271214 
L 340.086944 293.088854 
L 340.801023 298.170317 
L 341.393384 300.962769 
L 341.799111 301.991684 
L 341.99386 302.062509 
L 342.115578 301.815977 
L 342.237296 301.001203 
L 342.326556 298.880047 
L 342.334671 298.416225 
L 342.342785 192.122182 
L 342.448274 195.841417 
L 343.649226 236.460477 
L 344.525596 258.017593 
L 345.377622 273.787681 
L 346.197191 285.087828 
L 346.976186 292.956458 
L 347.690266 298.079118 
L 348.290741 300.936028 
L 348.696468 301.98172 
L 348.891217 302.068202 
L 349.012935 301.841911 
L 349.142768 300.994014 
L 349.232028 298.848501 
L 349.240142 192.687541 
L 349.345631 196.390768 
L 350.554698 237.068161 
L 351.431068 258.476396 
L 352.283094 274.131138 
L 353.102662 285.341683 
L 353.881658 293.139692 
L 354.595737 298.205275 
L 355.188099 300.984081 
L 355.585711 301.98895 
L 355.78046 302.064183 
L 355.902178 301.823391 
L 356.023896 301.025181 
L 356.121271 298.546807 
L 356.129385 192.295721 
L 356.234874 196.010042 
L 357.44394 236.8053 
L 358.32031 258.277955 
L 359.172337 273.982608 
L 359.991905 285.231926 
L 360.770901 293.060502 
L 361.48498 298.150807 
L 362.077341 300.950841 
L 362.483068 301.987282 
L 362.677817 302.065162 
L 362.799535 301.827799 
L 362.929368 300.944407 
L 363.018628 298.621645 
L 363.026742 192.394073 
L 363.132231 196.105609 
L 364.341297 236.871285 
L 365.217667 258.327772 
L 366.069694 274.019898 
L 366.889262 285.259486 
L 367.668258 293.080391 
L 368.382337 298.164494 
L 368.974699 300.959211 
L 369.380425 301.990378 
L 369.575174 302.06332 
L 369.696892 301.819547 
L 369.81861 301.01276 
L 369.90787 298.930097 
L 369.915985 298.479866 
L 369.924099 192.207069 
L 370.029588 195.9239 
L 371.23054 236.517577 
L 372.10691 258.06071 
L 372.958937 273.819966 
L 373.778505 285.111698 
L 374.557501 292.973699 
L 375.27158 298.091008 
L 375.863941 300.914137 
L 376.269668 301.973312 
L 376.472531 302.066748 
L 376.59425 301.835079 
L 376.724082 300.97005 
L 376.813342 298.740976 
L 376.821457 192.549298 
L 376.926946 196.25644 
L 378.136012 236.975422 
L 379.012382 258.406388 
L 379.864408 274.078742 
L 380.683977 285.302969 
L 381.462972 293.111766 
L 382.177052 298.186076 
L 382.769413 300.972386 
L 383.17514 301.995182 
L 383.361774 302.066697 
L 383.483492 301.834844 
L 383.613325 300.969223 
L 383.702585 298.737201 
L 383.710699 192.544418 
L 383.816188 196.251697 
L 385.025254 236.972148 
L 385.901624 258.403916 
L 386.753651 274.076892 
L 387.573219 285.301602 
L 388.352215 293.110779 
L 389.066294 298.185398 
L 389.658656 300.971972 
L 390.064382 301.995032 
L 390.259131 302.060334 
L 390.380849 301.806565 
L 390.502567 300.970621 
L 390.591827 298.743584 
L 390.599942 192.552669 
L 390.705431 196.259715 
L 391.914497 236.977684 
L 392.790867 258.408095 
L 393.642894 274.08002 
L 394.462462 285.303913 
L 395.241458 293.112447 
L 395.955537 298.186544 
L 396.547898 300.972671 
L 396.953625 301.995285 
L 397.140259 302.066638 
L 397.261978 301.834569 
L 397.39181 300.968257 
L 397.48107 298.73278 
L 397.489185 192.538699 
L 397.594674 196.24614 
L 398.487273 227.647996 
L 398.487273 227.647996 
" clip-path="url(#p5b0d266c09)" style="fill: none; stroke: #000000; stroke-width: 1.5; stroke-linecap: square"/>
   </g>
   <g id="patch_8">
    <path d="M 57.6 307.584 
L 57.6 186.624 
" style="fill: none; stroke: #000000; stroke-width: 0.8; stroke-linejoin: miter; stroke-linecap: square"/>
   </g>
   <g id="patch_9">
    <path d="M 414.72 307.584 
L 414.72 186.624 
" style="fill: none; stroke: #000000; stroke-width: 0.8; stroke-linejoin: miter; stroke-linecap: square"/>
   </g>
   <g id="patch_10">
    <path d="M 57.6 307.584 
L 414.72 307.584 
" style="fill: none; stroke: #000000; stroke-width: 0.8; stroke-linejoin: miter; stroke-linecap: square"/>
   </g>
   <g id="patch_11">
    <path d="M 57.6 186.624 
L 414.72 186.624 
" style="fill: none; stroke: #000000; stroke-width: 0.8; stroke-linejoin: miter; stroke-linecap: square"/>
   </g>
  </g>
 </g>
 <defs>
  <clipPath id="p46859136a9">
   <rect x="57.6" y="41.472" width="357.12" height="120.96"/>
  </clipPath>
  <clipPath id="p5b0d266c09">
   <rect x="57.6" y="186.624" width="357.12" height="120.96"/>
  </clipPath>
 </defs>
</svg>
